' Generated by UML Generator
' Encoded: hPbRRzj648NV_IluADSsGEf2IG4An1SPTTF6WTqWlI0GU5dMH2ZIe2XV6kI_bwGkFf-aDTgYBx9tPtTsTdPsvypXstaLbDLYbXtClwJvVL06CoVAWldyjAhAD5nKvYegyjlqB-Eu1tTfR9meBQFC71oqevnJC-yEVEVhWUESVArrLMdqpVbqVNCnlRtwVVB6IVFA-TxfGtpsq_NvEyWz7mFUJNw3kDU5-ERwu_kBsyrSAf_y-k7q_SNaOhgjfBESvXmvtg7pdHZHJ9-Qf_iWZqtypZo_SSBdohIzrUnUMlEpucdPhDLzTJhDVuUE--JtZbyQmqWRGss4qaYwql1LuYVIY0RIwBdIS3sTe-jqiOwHHgp30Xqsz7NHG1eZDJGQwvnOrz4v0ntMrqKJtKAW2kA-IdJHG1qoLlS6EcS8GtMT41ReecCzkQxwe8U6Mf2ejaZDwM4BUd966ucUt50RyKYrgSHJ1Qwk4-7eTJ-HDZnLFTRDkQfwhCVegcfFtJjIzngL68sghYe8TTWG-z5m6U58rBsUskRXocYG3tHOe8OEr8AUAeZL8I4iKDiC91eK8psIWGwBzHXT-4qZiQkIHBSTge81jgqxZLGIgaDwk8qwfw_h33H28jrS3AjL4gYsH2tegm_wkjEUIaOQ1ttS4hNQHUoe1GErhQVx6SDGtTn0FHh0KDKsmhkZ5eon7rMTw1P27AE6MAn-w-AY8mxmxY2gyDYfEIwkZCunE6riJkzfNqFPmsE7zmsf3V6cvlYu62hna4lKK1-deDxf8onrFrrrI5VTEuOsFQo-7edHBOGwpDCjn7XgjE7YGT66GOpY4S9pYwk9y5T3k_2e-Y1IrR5wDD1XFa9PtJj6pa9onJE8e43EKeclfpr2hiUjLoS6kewFW5KV96gRKR_vgdg8L833Kgj37JPKILUrTLM11no2z87iZ11JrR4wP8Wxfq7UnxCEZwfaX2qWtX3NkXzVRUkhRQx6JWAmeDfyZPsUgXuWyIEz0sZYvGCmqtMC3ai0P71FWOXrqHWMgEgnEdwi7lLqs4ZtOrHRXFS0uOBJ1bX0xAZL8znwTKYe2WnE3fK4tZVSRLNTHSPGrI40atedX7TyvrjR4wNvmwsbB0BS0iO3S8cj9GumEF0qSYvSWmoEt8wGGbPXPXtQ80qgEq1182mKJ0Wf84RaTiGNoWX4Aq5LtvQQaQCOhQ7jT56SubOWOU6bGxv1wG48WCmAo8byW_o9e4PjYQgcRttJyLZZZk7PuoKTsz8iQnVV1iXHjYA3-zQN6_K1yWqAMZnxU9A1iF2y-lQdqhTMtdPq4TcG778kS2vGCz8vSXII3n0zgdKKJCWgmDD0PIYS0VYGeu1cWLM0zL7c0LYYT0UrWfeFJp_g0-0rG44G3a1bADbGnmF0eg15aGLWYJAFbRUnbKMWYa2J8AkWVaFM1xa3V0CG0hOBLGsG3uWqW6lWN225lhN00Ak6QWEG4zKJU3rKqK0AuC60697RKHQ1jG6Y1tn49GIe3huDU0rbEFWSbE60zq2pWCCWTu1yGDIG6FHiJC_G2XB1pO0f1Ou2eGek49KGe2s83N1de5R0GYNMSWKO78WUzG6AUbHSO8V0qQ7G1Ei9vXTL3VW2q6M9jGv1kG8sXNpEoCOVWgS4jmc22pGZo12Goc0MoKPQMGxG2k20m2YX10L9WUe9H1gWEi2riTQZuAT0H8Db1-5DyisrSWoXZNn34GoQXCoLQwlmmU-Y903v1XONV2Zg45IGdlKZ1WXlS4qitOSsIXVKlh7MYM1wy5M7bPrduzk6yR8iEgb_ZfQVnZfVrb-K_lXysCZcYt1UfTMYCf-ACkuy1Dd2R0Qi_sa6baKLLEQL0K4StnIBlFbcrKdps3ordxhg8Gz56ZS3gdHMsz09r_trRzCzMsITe6qTE-5IuU7BPwuN-sxRzKNV_2vDgflYSQwTi_JflCWMito_3HknJZeoULG-trVrbBEiYBwiTtLSJxxQQ3bsYaMr9QzxhlOjqzIX-wnh-kqRggK_lsw-Zi0EOlD_xk3R-dlgUHXjVKorVIsTHkdzdIdVh3x1BhiMPMdoIhvPXeiaQGQjolDyaMLxlcmsLbe6RaGVvoQknKMHcI2lHoH1Db_DVZ1baXMFgd3LjPoqYhj6r_sYjkww_NjRbIQORQvBlVDE-l3Y9xathTDsPhQtQHL8hO-Riv1ThEQnIuvsTOBxf-w9rJYeWZtYTI1OnFjc7pkPoV-ixhQ2RQygszWapTFvtMIfFItopeximkp8Dc6saargLDgEQ6FkQBktSoY1sKYkyettjwBqSlBB-G_Jiu-NbvERFT_kf_V1CZ150uAuFlsslN914pLdzVvFop9utWuNQr274gZBrTssFp5LTBSTuEPnwU4TozktTLflUXKwDoRO7_ZBiDtoIsUzqny_r6uJmU6hewLlA_HVxiH_qz1UaxetlYoBsMgEn4eZwMnomr6K5NEp6o_jgdeEo-FVERxGucJlCnscgkYnxHl-odZj_0TE-tSwsdcFPLedZ73xxcswTsxxZlkQz_oxavFr8xrpYnfPuxnT1wybRqqUBsRPtm
' URL: http://www.plantuml.com/plantuml/uml/hPbRRzj648NV_IluADSsGEf2IG4An1SPTTF6WTqWlI0GU5dMH2ZIe2XV6kI_bwGkFf-aDTgYBx9tPtTsTdPsvypXstaLbDLYbXtClwJvVL06CoVAWldyjAhAD5nKvYegyjlqB-Eu1tTfR9meBQFC71oqevnJC-yEVEVhWUESVArrLMdqpVbqVNCnlRtwVVB6IVFA-TxfGtpsq_NvEyWz7mFUJNw3kDU5-ERwu_kBsyrSAf_y-k7q_SNaOhgjfBESvXmvtg7pdHZHJ9-Qf_iWZqtypZo_SSBdohIzrUnUMlEpucdPhDLzTJhDVuUE--JtZbyQmqWRGss4qaYwql1LuYVIY0RIwBdIS3sTe-jqiOwHHgp30Xqsz7NHG1eZDJGQwvnOrz4v0ntMrqKJtKAW2kA-IdJHG1qoLlS6EcS8GtMT41ReecCzkQxwe8U6Mf2ejaZDwM4BUd966ucUt50RyKYrgSHJ1Qwk4-7eTJ-HDZnLFTRDkQfwhCVegcfFtJjIzngL68sghYe8TTWG-z5m6U58rBsUskRXocYG3tHOe8OEr8AUAeZL8I4iKDiC91eK8psIWGwBzHXT-4qZiQkIHBSTge81jgqxZLGIgaDwk8qwfw_h33H28jrS3AjL4gYsH2tegm_wkjEUIaOQ1ttS4hNQHUoe1GErhQVx6SDGtTn0FHh0KDKsmhkZ5eon7rMTw1P27AE6MAn-w-AY8mxmxY2gyDYfEIwkZCunE6riJkzfNqFPmsE7zmsf3V6cvlYu62hna4lKK1-deDxf8onrFrrrI5VTEuOsFQo-7edHBOGwpDCjn7XgjE7YGT66GOpY4S9pYwk9y5T3k_2e-Y1IrR5wDD1XFa9PtJj6pa9onJE8e43EKeclfpr2hiUjLoS6kewFW5KV96gRKR_vgdg8L833Kgj37JPKILUrTLM11no2z87iZ11JrR4wP8Wxfq7UnxCEZwfaX2qWtX3NkXzVRUkhRQx6JWAmeDfyZPsUgXuWyIEz0sZYvGCmqtMC3ai0P71FWOXrqHWMgEgnEdwi7lLqs4ZtOrHRXFS0uOBJ1bX0xAZL8znwTKYe2WnE3fK4tZVSRLNTHSPGrI40atedX7TyvrjR4wNvmwsbB0BS0iO3S8cj9GumEF0qSYvSWmoEt8wGGbPXPXtQ80qgEq1182mKJ0Wf84RaTiGNoWX4Aq5LtvQQaQCOhQ7jT56SubOWOU6bGxv1wG48WCmAo8byW_o9e4PjYQgcRttJyLZZZk7PuoKTsz8iQnVV1iXHjYA3-zQN6_K1yWqAMZnxU9A1iF2y-lQdqhTMtdPq4TcG778kS2vGCz8vSXII3n0zgdKKJCWgmDD0PIYS0VYGeu1cWLM0zL7c0LYYT0UrWfeFJp_g0-0rG44G3a1bADbGnmF0eg15aGLWYJAFbRUnbKMWYa2J8AkWVaFM1xa3V0CG0hOBLGsG3uWqW6lWN225lhN00Ak6QWEG4zKJU3rKqK0AuC60697RKHQ1jG6Y1tn49GIe3huDU0rbEFWSbE60zq2pWCCWTu1yGDIG6FHiJC_G2XB1pO0f1Ou2eGek49KGe2s83N1de5R0GYNMSWKO78WUzG6AUbHSO8V0qQ7G1Ei9vXTL3VW2q6M9jGv1kG8sXNpEoCOVWgS4jmc22pGZo12Goc0MoKPQMGxG2k20m2YX10L9WUe9H1gWEi2riTQZuAT0H8Db1-5DyisrSWoXZNn34GoQXCoLQwlmmU-Y903v1XONV2Zg45IGdlKZ1WXlS4qitOSsIXVKlh7MYM1wy5M7bPrduzk6yR8iEgb_ZfQVnZfVrb-K_lXysCZcYt1UfTMYCf-ACkuy1Dd2R0Qi_sa6baKLLEQL0K4StnIBlFbcrKdps3ordxhg8Gz56ZS3gdHMsz09r_trRzCzMsITe6qTE-5IuU7BPwuN-sxRzKNV_2vDgflYSQwTi_JflCWMito_3HknJZeoULG-trVrbBEiYBwiTtLSJxxQQ3bsYaMr9QzxhlOjqzIX-wnh-kqRggK_lsw-Zi0EOlD_xk3R-dlgUHXjVKorVIsTHkdzdIdVh3x1BhiMPMdoIhvPXeiaQGQjolDyaMLxlcmsLbe6RaGVvoQknKMHcI2lHoH1Db_DVZ1baXMFgd3LjPoqYhj6r_sYjkww_NjRbIQORQvBlVDE-l3Y9xathTDsPhQtQHL8hO-Riv1ThEQnIuvsTOBxf-w9rJYeWZtYTI1OnFjc7pkPoV-ixhQ2RQygszWapTFvtMIfFItopeximkp8Dc6saargLDgEQ6FkQBktSoY1sKYkyettjwBqSlBB-G_Jiu-NbvERFT_kf_V1CZ150uAuFlsslN914pLdzVvFop9utWuNQr274gZBrTssFp5LTBSTuEPnwU4TozktTLflUXKwDoRO7_ZBiDtoIsUzqny_r6uJmU6hewLlA_HVxiH_qz1UaxetlYoBsMgEn4eZwMnomr6K5NEp6o_jgdeEo-FVERxGucJlCnscgkYnxHl-odZj_0TE-tSwsdcFPLedZ73xxcswTsxxZlkQz_oxavFr8xrpYnfPuxnT1wybRqqUBsRPtm
' Generated on: 2026-03-12T09:23:29.617591800

@startuml
skinparam classAttributeIconSize 0
hide circle

class Aes256 {
  -{static} WORD_SIZE: int = 4
  -{static} BLOCK_SIZE: int = 16
  -{static} KEY_SIZE: int = 32
  -{static} ROUNDS: int = 14
  -{static} EXPANDED_KEY_SIZE: int = (ROUNDS + 1) * BLOCK_SIZE
  -_expandedKey: byte
  -_tmp: byte
  -_sBox: byte = { (byte) 0x63, (byte) 0x7c, (byte) 0x77, (byte) 0x7b, (byte) 0xf2, (byte) 0x6b, (byte) 0x6f, (byte) 0xc5, (byte) 0x30, (byte) 0x01, (byte) 0x67, (byte) 0x2b, (byte) 0xfe, (byte) 0xd7, (byte) 0xab, (byte) 0x76, (byte) 0xca, (byte) 0x82, (byte) 0xc9, (byte) 0x7d, (byte) 0xfa, (byte) 0x59, (byte) 0x47, (byte) 0xf0, (byte) 0xad, (byte) 0xd4, (byte) 0xa2, (byte) 0xaf, (byte) 0x9c, (byte) 0xa4, (byte) 0x72, (byte) 0xc0, (byte) 0xb7, (byte) 0xfd, (byte) 0x93, (byte) 0x26, (byte) 0x36, (byte) 0x3f, (byte) 0xf7, (byte) 0xcc, (byte) 0x34, (byte) 0xa5, (byte) 0xe5, (byte) 0xf1, (byte) 0x71, (byte) 0xd8, (byte) 0x31, (byte) 0x15, (byte) 0x04, (byte) 0xc7, (byte) 0x23, (byte) 0xc3, (byte) 0x18, (byte) 0x96, (byte) 0x05, (byte) 0x9a, (byte) 0x07, (byte) 0x12, (byte) 0x80, (byte) 0xe2, (byte) 0xeb, (byte) 0x27, (byte) 0xb2, (byte) 0x75, (byte) 0x09, (byte) 0x83, (byte) 0x2c, (byte) 0x1a, (byte) 0x1b, (byte) 0x6e, (byte) 0x5a, (byte) 0xa0, (byte) 0x52, (byte) 0x3b, (byte) 0xd6, (byte) 0xb3, (byte) 0x29, (byte) 0xe3, (byte) 0x2f, (byte) 0x84, (byte) 0x53, (byte) 0xd1, (byte) 0x00, (byte) 0xed, (byte) 0x20, (byte) 0xfc, (byte) 0xb1, (byte) 0x5b, (byte) 0x6a, (byte) 0xcb, (byte) 0xbe, (byte) 0x39, (byte) 0x4a, (byte) 0x4c, (byte) 0x58, (byte) 0xcf, (byte) 0xd0, (byte) 0xef, (byte) 0xaa, (byte) 0xfb, (byte) 0x43, (byte) 0x4d, (byte) 0x33, (byte) 0x85, (byte) 0x45, (byte) 0xf9, (byte) 0x02, (byte) 0x7f, (byte) 0x50, (byte) 0x3c, (byte) 0x9f, (byte) 0xa8, (byte) 0x51, (byte) 0xa3, (byte) 0x40, (byte) 0x8f, (byte) 0x92, (byte) 0x9d, (byte) 0x38, (byte) 0xf5, (byte) 0xbc, (byte) 0xb6, (byte) 0xda, (byte) 0x21, (byte) 0x10, (byte) 0xff, (byte) 0xf3, (byte) 0xd2, (byte) 0xcd, (byte) 0x0c, (byte) 0x13, (byte) 0xec, (byte) 0x5f, (byte) 0x97, (byte) 0x44, (byte) 0x17, (byte) 0xc4, (byte) 0xa7, (byte) 0x7e, (byte) 0x3d, (byte) 0x64, (byte) 0x5d, (byte) 0x19, (byte) 0x73, (byte) 0x60, (byte) 0x81, (byte) 0x4f, (byte) 0xdc, (byte) 0x22, (byte) 0x2a, (byte) 0x90, (byte) 0x88, (byte) 0x46, (byte) 0xee, (byte) 0xb8, (byte) 0x14, (byte) 0xde, (byte) 0x5e, (byte) 0x0b, (byte) 0xdb, (byte) 0xe0, (byte) 0x32, (byte) 0x3a, (byte) 0x0a, (byte) 0x49, (byte) 0x06, (byte) 0x24, (byte) 0x5c, (byte) 0xc2, (byte) 0xd3, (byte) 0xac, (byte) 0x62, (byte) 0x91, (byte) 0x95, (byte) 0xe4, (byte) 0x79, (byte) 0xe7, (byte) 0xc8, (byte) 0x37, (byte) 0x6d, (byte) 0x8d, (byte) 0xd5, (byte) 0x4e, (byte) 0xa9, (byte) 0x6c, (byte) 0x56, (byte) 0xf4, (byte) 0xea, (byte) 0x65, (byte) 0x7a, (byte) 0xae, (byte) 0x08, (byte) 0xba, (byte) 0x78, (byte) 0x25, (byte) 0x2e, (byte) 0x1c, (byte) 0xa6, (byte) 0xb4, (byte) 0xc6, (byte) 0xe8, (byte) 0xdd, (byte) 0x74, (byte) 0x1f, (byte) 0x4b, (byte) 0xbd, (byte) 0x8b, (byte) 0x8a, (byte) 0x70, (byte) 0x3e, (byte) 0xb5, (byte) 0x66, (byte) 0x48, (byte) 0x03, (byte) 0xf6, (byte) 0x0e, (byte) 0x61, (byte) 0x35, (byte) 0x57, (byte) 0xb9, (byte) 0x86, (byte) 0xc1, (byte) 0x1d, (byte) 0x9e, (byte) 0xe1, (byte) 0xf8, (byte) 0x98, (byte) 0x11, (byte) 0x69, (byte) 0xd9, (byte) 0x8e, (byte) 0x94, (byte) 0x9b, (byte) 0x1e, (byte) 0x87, (byte) 0xe9, (byte) 0xce, (byte) 0x55, (byte) 0x28, (byte) 0xdf, (byte) 0x8c, (byte) 0xa1, (byte) 0x89, (byte) 0x0d, (byte) 0xbf, (byte) 0xe6, (byte) 0x42, (byte) 0x68, (byte) 0x41, (byte) 0x99, (byte) 0x2d, (byte) 0x0f, (byte) 0xb0, (byte) 0x54, (byte) 0xbb, (byte) 0x16 }
  -_invSBox: byte = { (byte) 0x52, (byte) 0x09, (byte) 0x6a, (byte) 0xd5, (byte) 0x30, (byte) 0x36, (byte) 0xa5, (byte) 0x38, (byte) 0xbf, (byte) 0x40, (byte) 0xa3, (byte) 0x9e, (byte) 0x81, (byte) 0xf3, (byte) 0xd7, (byte) 0xfb, (byte) 0x7c, (byte) 0xe3, (byte) 0x39, (byte) 0x82, (byte) 0x9b, (byte) 0x2f, (byte) 0xff, (byte) 0x87, (byte) 0x34, (byte) 0x8e, (byte) 0x43, (byte) 0x44, (byte) 0xc4, (byte) 0xde, (byte) 0xe9, (byte) 0xcb, (byte) 0x54, (byte) 0x7b, (byte) 0x94, (byte) 0x32, (byte) 0xa6, (byte) 0xc2, (byte) 0x23, (byte) 0x3d, (byte) 0xee, (byte) 0x4c, (byte) 0x95, (byte) 0x0b, (byte) 0x42, (byte) 0xfa, (byte) 0xc3, (byte) 0x4e, (byte) 0x08, (byte) 0x2e, (byte) 0xa1, (byte) 0x66, (byte) 0x28, (byte) 0xd9, (byte) 0x24, (byte) 0xb2, (byte) 0x76, (byte) 0x5b, (byte) 0xa2, (byte) 0x49, (byte) 0x6d, (byte) 0x8b, (byte) 0xd1, (byte) 0x25, (byte) 0x72, (byte) 0xf8, (byte) 0xf6, (byte) 0x64, (byte) 0x86, (byte) 0x68, (byte) 0x98, (byte) 0x16, (byte) 0xd4, (byte) 0xa4, (byte) 0x5c, (byte) 0xcc, (byte) 0x5d, (byte) 0x65, (byte) 0xb6, (byte) 0x92, (byte) 0x6c, (byte) 0x70, (byte) 0x48, (byte) 0x50, (byte) 0xfd, (byte) 0xed, (byte) 0xb9, (byte) 0xda, (byte) 0x5e, (byte) 0x15, (byte) 0x46, (byte) 0x57, (byte) 0xa7, (byte) 0x8d, (byte) 0x9d, (byte) 0x84, (byte) 0x90, (byte) 0xd8, (byte) 0xab, (byte) 0x00, (byte) 0x8c, (byte) 0xbc, (byte) 0xd3, (byte) 0x0a, (byte) 0xf7, (byte) 0xe4, (byte) 0x58, (byte) 0x05, (byte) 0xb8, (byte) 0xb3, (byte) 0x45, (byte) 0x06, (byte) 0xd0, (byte) 0x2c, (byte) 0x1e, (byte) 0x8f, (byte) 0xca, (byte) 0x3f, (byte) 0x0f, (byte) 0x02, (byte) 0xc1, (byte) 0xaf, (byte) 0xbd, (byte) 0x03, (byte) 0x01, (byte) 0x13, (byte) 0x8a, (byte) 0x6b, (byte) 0x3a, (byte) 0x91, (byte) 0x11, (byte) 0x41, (byte) 0x4f, (byte) 0x67, (byte) 0xdc, (byte) 0xea, (byte) 0x97, (byte) 0xf2, (byte) 0xcf, (byte) 0xce, (byte) 0xf0, (byte) 0xb4, (byte) 0xe6, (byte) 0x73, (byte) 0x96, (byte) 0xac, (byte) 0x74, (byte) 0x22, (byte) 0xe7, (byte) 0xad, (byte) 0x35, (byte) 0x85, (byte) 0xe2, (byte) 0xf9, (byte) 0x37, (byte) 0xe8, (byte) 0x1c, (byte) 0x75, (byte) 0xdf, (byte) 0x6e, (byte) 0x47, (byte) 0xf1, (byte) 0x1a, (byte) 0x71, (byte) 0x1d, (byte) 0x29, (byte) 0xc5, (byte) 0x89, (byte) 0x6f, (byte) 0xb7, (byte) 0x62, (byte) 0x0e, (byte) 0xaa, (byte) 0x18, (byte) 0xbe, (byte) 0x1b, (byte) 0xfc, (byte) 0x56, (byte) 0x3e, (byte) 0x4b, (byte) 0xc6, (byte) 0xd2, (byte) 0x79, (byte) 0x20, (byte) 0x9a, (byte) 0xdb, (byte) 0xc0, (byte) 0xfe, (byte) 0x78, (byte) 0xcd, (byte) 0x5a, (byte) 0xf4, (byte) 0x1f, (byte) 0xdd, (byte) 0xa8, (byte) 0x33, (byte) 0x88, (byte) 0x07, (byte) 0xc7, (byte) 0x31, (byte) 0xb1, (byte) 0x12, (byte) 0x10, (byte) 0x59, (byte) 0x27, (byte) 0x80, (byte) 0xec, (byte) 0x5f, (byte) 0x60, (byte) 0x51, (byte) 0x7f, (byte) 0xa9, (byte) 0x19, (byte) 0xb5, (byte) 0x4a, (byte) 0x0d, (byte) 0x2d, (byte) 0xe5, (byte) 0x7a, (byte) 0x9f, (byte) 0x93, (byte) 0xc9, (byte) 0x9c, (byte) 0xef, (byte) 0xa0, (byte) 0xe0, (byte) 0x3b, (byte) 0x4d, (byte) 0xae, (byte) 0x2a, (byte) 0xf5, (byte) 0xb0, (byte) 0xc8, (byte) 0xeb, (byte) 0xbb, (byte) 0x3c, (byte) 0x83, (byte) 0x53, (byte) 0x99, (byte) 0x61, (byte) 0x17, (byte) 0x2b, (byte) 0x04, (byte) 0x7e, (byte) 0xba, (byte) 0x77, (byte) 0xd6, (byte) 0x26, (byte) 0xe1, (byte) 0x69, (byte) 0x14, (byte) 0x63, (byte) 0x55, (byte) 0x21, (byte) 0x0c, (byte) 0x7d }
  --
  +Aes256(key: byte[])
  -substituteWord(value: byte[]): byte[]
  -rotate(value: byte[]): byte[]
  -addRoundKey(index: int): void
  -times2(b: int): int
  -mul(a: int, b: byte): byte
  -substituteState(): void
  -shiftRows(): void
  -mixColumn(index: int): void
  -mixColumns(): void
  +encrypt(inBlock: byte[], inIndex: int, outBlock: byte[], outIndex: int): void
  -invShiftRows(): void
  -invSubstituteState(): void
  -invMixColumn(index: int): void
  -invMixColumns(): void
  +decrypt(inBlock: byte[], inIndex: int, outBlock: byte[], outIndex: int): void
}

class Cbc {
  -{static} BLOCK_SIZE: int = 16
  -_cipher: Aes256
  -_current: byte
  -_buffer: byte = null
  -_tmp: byte
  -_outBuffer: byte = null
  -_outBufferUsed: boolean = false
  -_overflow: byte
  -_overflowUsed: int
  -_output: OutputStream
  --
  +Cbc(iv: byte[], key: byte[], output: OutputStream)
  -encryptBlock(inBuffer: byte[], outBuffer: byte[]): void
  -decryptBlock(inBuffer: byte[]): void
  +encrypt(data: byte[]): void
  +decrypt(data: byte[]): void
  +encrypt(data: byte[], length: int): void
  +decrypt(data: byte[], length: int): void
  +finishEncryption(): void
  +finishDecryption(): void
}

class DecryptException {
  +DecryptException()
}

class CryptInputStream {
  -{static} FETCH_BUFFER_SIZE: int = 32
  -_parent: InputStream
  -_cipher: Cbc
  -_decrypted: ByteArrayOutputStream
  -_buffer: byte = null
  -_bufferUsed: int = 0
  -_fetchBuffer: byte = new byte[FETCH_BUFFER_SIZE]
  -_lastBufferRead: boolean = false
  --
  +CryptInputStream(parent: JPassInputStream)
  +CryptInputStream(parent: InputStream, key: byte[], iv: byte[])
  +CryptInputStream(parent: InputStream, key: byte[])
  -readFromStream(): void
  +read(): int
  +close(): void
}

class CryptOutputStream {
  -_cipher: Cbc
  -_buffer: byte = new byte[1]
  --
  +CryptOutputStream(parent: JPassOutputStream)
  +CryptOutputStream(parent: OutputStream, key: byte[], iv: byte[])
  +CryptOutputStream(parent: OutputStream, key: byte[])
  +write(b: int): void
  +write(b: byte[]): void
  +close(): void
}

Cbc *-- Aes256
CryptInputStream *-- Cbc
CryptOutputStream *-- Cbc
@enduml