' Generated by UML Generator
' Encoded: ZLJBJkim4DtdAxnCwMt5keAALv4gyL91LqY8XR6dPOHZLxPBAOX_PvouJj9GYOrbvymPdvavpedptFfLeJBtXdh9BI-OKDovK-yjlgmyJ8NHz_W9x31xHGbCe1KAigoCOXVSysiZGR6lZB715wNpABuPQjff0QCw8k2WAIku4PjK6tRCDAotfxmNOkQeu8ONHBsdhteHObQgf2_fohMnSiJ4AxSDe30IvmW4l1YZW6l2vbmv2E0WB4b6UKa_2Ls0dqQjUQ-jjazOKfOa1y3Lm6v55FXkK4RwPQmbyAjg8Zq1kzKs-EYkOrc17WkB_8HqAcyBk8iT2nb2pvwUOu84j7lwzDpWqvovpTi97z2hgXzNwFnH9NhSwDRcR5F6v3wiZR9AC8nY6pZL4ZxsHQFssNTocH6hWZfzPuq0voOV0fOUZIvDrz-7vWMT-ABEMYUCmvh1qZZqncug--uE8tnxWqtLcfQ_pszl_azc3vFPY3qMwjpeTx0Ux55CF8x6Rc7ZFAB3KaGlUREZfkEAVop9e0cr34pN90F_OgPExZ-JstVkoMI1ost_Tnx9sgA7XCcuwJmKcadz4paO31fFi3kbuN3yYuuJq99-OJy
' URL: http://www.plantuml.com/plantuml/uml/ZLJBJkim4DtdAxnCwMt5keAALv4gyL91LqY8XR6dPOHZLxPBAOX_PvouJj9GYOrbvymPdvavpedptFfLeJBtXdh9BI-OKDovK-yjlgmyJ8NHz_W9x31xHGbCe1KAigoCOXVSysiZGR6lZB715wNpABuPQjff0QCw8k2WAIku4PjK6tRCDAotfxmNOkQeu8ONHBsdhteHObQgf2_fohMnSiJ4AxSDe30IvmW4l1YZW6l2vbmv2E0WB4b6UKa_2Ls0dqQjUQ-jjazOKfOa1y3Lm6v55FXkK4RwPQmbyAjg8Zq1kzKs-EYkOrc17WkB_8HqAcyBk8iT2nb2pvwUOu84j7lwzDpWqvovpTi97z2hgXzNwFnH9NhSwDRcR5F6v3wiZR9AC8nY6pZL4ZxsHQFssNTocH6hWZfzPuq0voOV0fOUZIvDrz-7vWMT-ABEMYUCmvh1qZZqncug--uE8tnxWqtLcfQ_pszl_azc3vFPY3qMwjpeTx0Ux55CF8x6Rc7ZFAB3KaGlUREZfkEAVop9e0cr34pN90F_OgPExZ-JstVkoMI1ost_Tnx9sgA7XCcuwJmKcadz4paO31fFi3kbuN3yYuuJq99-OJy
' Generated on: 2026-03-12T09:24:53.290196100

@startuml
skinparam classAttributeIconSize 0
hide circle

class DataModel {
  -{static} instance: DataModel
  -entries: Entries = new Entries()
  -fileName: String = null
  -password: char = null
  -modified: boolean = false
  --
  -DataModel()
  +{static} getInstance(): DataModel
  +getEntries(): Entries
  +setEntries(entries: Entries): void
  +getFileName(): String
  +setFileName(fileName: String): void
  +isModified(): boolean
  +setModified(modified: boolean): void
  +getPassword(): char[]
  +setPassword(password: char[]): void
  +clear(): void
  +getTitles(): List<String>
  +getEntryByTitle(title: String): Entry
  -getEntryIndexByTitle(title: String): int
}

class DocumentProcessException {
  +DocumentProcessException(message: String)
}

class EntriesRepository {
  -fileName: String
  -key: char
  -{static} CONVERTER: XmlConverter<Entries> = new XmlConverter<>(Entries.class)
  --
  -EntriesRepository(fileName: String, key: char[])
  +{static} newInstance(fileName: String): EntriesRepository
  +{static} newInstance(fileName: String, key: char[]): EntriesRepository
  +readDocument(): Entries
  +writeDocument(document: Entries): void
}

DataModel *-- DataModel
EntriesRepository ..> EntriesRepository
@enduml