' Generated by UML Generator
' Encoded: lJrRUzisik_v5JpEwQdSs3g-tqutMrcYRIMwLQBZU3TTVHG9sQmfKajITjni-ziFRYHdG81Mqlss3x48O0R0O31tiZ-bcPjagqNuAdq8egMRk0lB2zqqRMLP4inM6UbwSJG9VYFMpglxm2UM5oHUI5wzugEi5adt3e-iBwyiQ_iBnPK5tk_MpN3ScKwwVxFFh23AhBzO1wZxl3TilqVzkqTem7lx5dNlxw7kyV1wq9aKi1Yv_N7K6dJipbH5qX1WrXjhTzFw0Io2WK_9vwKR-SH_JvxFhDbpHdXhjbY2f_Gy_YmUARelLeFzshHsFX_jRvKFnnvyE8OFC_0mtmCFHx3dQ0uUl4FmiBy37dPs8GoSPm_DGy233uUvSDZn4PpK1GydSA7UAOJnuJmGvX0EEu2Jpk4MN8Z0Fu0zS58N4kGKajU5CCTeeN2U6Le1dFGKdjmUfC4-Ue0hc4Di7bpEFje2F3a27-Rmv8xXWty2iS6UNOXW1yxZeQE7-_7Wmov4VGetjmDHdy9Zt86eTo5vJo1v2UmXaAls888P77QCzWFPvGGT2IJlBbpRBheoaCaFuJ0NBlGGhc0V8l0XGMPe1N1j1FL0fZY1Ht88X_dm67SGtI0dxi6UETps328uHDk6E_LWpmmIP1_THWXp0ESvX1pYmStvQDMmnuNOvd051v061t2d-x3d1FB10RebSDKxY7VW2WxXslRXVaxHGk7c3Y55NRHGYEq4oHsuWbEq7uXw3hSmGyS8MSo7TDj35ntn0P8xYAkGi8FBsK5N1i8GTDfeS_2U7a1MtaN23iatfDeGly7b7A6B0NjsaIw12pr2fm2fSu3O4kvd3n9a3vBt5663XtK0ZuJ0BSpWi5su1H-96lYmWmGAV228Hv4GGk8MNKt4_d2XUuYYa0OUHEr3Yhfms15YPKZUKwIpa795OX0n1T9PiES8dlO9qlNeraCYkd2U8yIma0Ppk3O2wNO4KHyZLO0E2wvw1eSTmvuzY6qF8jX5TWXI7qWx8nQ3g7r8a6Dqvo2J7o2nZYWAUqxG5X2_8Rw6-pc2Qpk0Qzk1l3D7nWB4TWHvPn-YFaIA7wbtP6WYoOSCCpWFWSFco911znHPn71I7wq0eZw5X3-55Ds5mqxWVWZ4vY5vWDW5dJOo5X3lm5MVe5iF2JA320WwEUH98Fc6xZP4lOSq1aGzGmOJfCuCKUV8-ftxH47qE36uHSZSGZOUCbnyeuk3R71aJoETYqY3D3ZIxOYba5R1clNOPD8WpmwPWiZ2GWuJOYbaCIBTZlWBkH68Mx5HTM1IpKX7OMwTcKuNEQVeLY25XIGTqZV8zK0c0DAioEH4-WRfJyJKoBT4Nis1KQOZOOtk619x-9AUcjGizbsEJ0OvSbkH1ZyoIcxa7o1zWnnQ9FQGI4OM5XAlHsPHUMJqlCtMXMUov93EHNOkifgHEaSw2YaVPD4ZRnqvJ4Yh87iQMMN8SKO67z9Ho9f5jWgozP6RXmnBvBgZq0ho-P3eH_u1ijUGAOW23iWgGouRykEH0OiSMkHa8SCIkNdOyoOcjmY5Yb2O16aLvByXhO-2EyY-GKO8YdOXhmPPFYYGXenhPESYI-70w62Wg1hoDf39YRmd5DT3NZIo550S35cCIBSZjmX5RP15Zyn7v0aXKnt5sv2zXjnm5Cz1RZWoxv4rYynX5Dn1bWyArE30uAufqdDiD19HR0P5If4TXGAgA1Q8F25asgB01egTeT0AYaBDZUuAii6HHO_y0-JK8uyBHOTGZ0uvcYZgYIA_oAj1yG8KBfiR_H3ahg1e2exdd9ZYXoXEYMARAC25meme68A2oYYoYAEHnYW72YkW612AA24N50KfaFU40cd8L4V6DJ7weoW-XGBHACgE0juu-BPZZ37CJC4tv0IZC0cENEsOF7mKtqKk0Gg-eIWkYeSYFmHvaBl690OAUADO4tRTZqqXNHJQ9qO_4KLwK5O7UtQxfdZRiI_SectwpnkH6ciyv1cbl_-ooVhIrIpDWcoLaPiuyHkFRhWYnO3y1nkOn9cRaPe1hk-FurN4SbQD8FB9PvxgeaCUuy1d0x9WGTVGcENjz5_Ml5Y53PS_RLapWN2pJ7ELwvlm-G6-z3wOP-FuAOMDY-1pEmvNYqY_Xg8R0hqXaPSyBpCASXx6taE-goqAt2smR5dnAbFwQKjNDmtpGtMhO-tc3T7UVltouGYq0v_yEtVmUvvFRSyy9PbgofPElM1vJv8pcO8LJQia8L46SfQprNpE1adtF5g5eIQpoLPf65XqNQV4fzrn718teYFcRfXAw4UIpCFu2IAKJG98yXt3jLpHrGtvtqcM47THN1UwyqRmMD89t1jEj0ealqsIaJYDsLc0NKWut0IELfwW7bJ3gxwRkPhkd14CtJheBIiaqLrshp2R5fLfx3o8WlJU5jY3E6fK-ZgaqbUmcUopgLNAHt2UUwEsDZO1OxAURbHGN-7I2zjfNqtFhoykxB4cTpzTke8n0GR4nFJq-RCa0UEQSxh_LfAupogx69bw1XXLpBx3s-Say-vL1YTFWiALbNFPEgMRbgmp9gwUyGNRAdHfv3jzDw9a0nsRjQD1cyBwvPtuDWpycj1M_oA95n86y0hhQHIwuOqNnYcfyWkV5Pw3EFxAySqCHDxz1HCCei8KKszupNZOk0RHlWu7XtjA0gemPkhTAvehjzr0lWwzqFtO9w5oQuA8_eeygjwB4KAePKb0qZFB5Zya9ULJWv_eF0Z9m5rGKBhu8Be3zs19ftoYjiMPvTsx2UXOn7um3uYPcxUBPV19tXGBlIEKvyHQsUxWQj_Glc9bnP9PHrfsg3i29AFW5t8l35xiHe8N7Ufk0NoGzkMs6BZSc8GlUYexnmiOIOen38nctBvY28eEJ5Fbp8cRD3129yX2GOzUa6O_YaM_1THwFd_cOneP-nTiYtUoeyW7ScF1D9hTsfBBOc-re9GU9R57qbGLxeRU1hKHK_Ukn5eYb8Sr9iiu3R8uUHRignu6Q-CtXv46yNTxEFXWZnrxV6PzN8JjEA9cGKQI7oNYjvAnKT_RXknjyaLi5hnPMKs5A-G5bYU469XEKp2mXfagkDS6ndCQC34XczDVkIHSbXHzllnHkIZ5cQXgHHo9GRtUaOWarER5PMrS3AjuQlG8e6UjjX3SpRmHxCTG6ARBqqRAiIfJOFD6Wk7jLXMFJdoli-5rTG3Oia47lBnrkWSAGkrWroDY7s07VvIMKxTdJo-6utxBcNOxzi3fNdJPXP4gT8D3Vbhv9_i-_TVVtTjeqga4GQb34_bkuhVfSgcqIflNpiNqP1FXdroFHaDw1pjJFXEzZvFkS32X_1lJ--RttUMFNRhCEv9iMKpUVY19IiM2yxmax7vo2onjYgDhA0EQt3cbScwpwSLXIBoiqHP_uoHjPZ55heASdT7LosSwuIhoc11g1ZuzYY2ZzAFkz6FUxQ-MOU2vpBdUVciLpKv224LzTaOlvcOX8FxGdG3W8aNtzeQNL3h7TtJZT9lY1wEi-DNW8484iLQXdafXnBiL9RbmWwZX9dTfBXjADK5Nub8lD76zp9A5i_AnJw9Lool5TBMzaP7FMIbk0Y-Ew1No625SpoCXO_YOsbnqxtHC_42WrSwubAaWTY_414_KpusVM0T5ro2F_0hSy4QRFLGaZkFEGWN78bwbf4sFve7gLl984VHP2uBFXuqIgbzU7ZQc6t5hnsrxzyHx6CNBrT8qg4fcXzAk7I-MSKI7GJfhEXH2wucxPIqYieYZm1CIGPWWTiI8v3Uy72ErPj4Cm3Gf2Gi7y7qXAcylMHCpYzbVnWyy896H1MKmTcqrMs0tRCjwnmPtwS2tXVGppoNCoVG-VYhcQP2r3dIzurpld6xYvA7OD_G7BX9wyufjY66DwWYsYTS-tHqGoQ_PfkmaYPE-C77OOWgx1uxBugKqYzYTg7e_yJ9WvvjRWnS12NsnLYzUFil3XyQdT7LqS0qTY6IZTjdLq74CDmWx97E3CENNKlN2kHhXzXOrqOaJBCX5d2pSBED2ZhLTPnIswL5fdfLzL6f7y-1kHPcT2MDaxREdnePFXpVdVFp6bhNnJF_RxlUtVNz32CLY2HtRQNLxa-dvxNJGwjk2K_Ch9PQkLorbtpfQnOvM2oh_wSbhbKXbKHUjwvupbOi3FjCNiAQcqtLwTZFYeXukjjaVTfXMxiW-4UJrvJd4dI1TXkwpjFN17daCbXqJzvNecP2vkmepfsWgEALoi8sS8qWOsdx0iJGI5cFZOKMF1oGBewbqUfO9OPTZJAZNaD23JUIFCo766RgyRyiouIi4XTQzuM7d9-xIFKj_1SOJg6w9LyBCHTw9s6BWXl6TmhM3wrvlQhUlXeN3-lsddU-5fq4lpCYD6F7UyR-iDOgfxLDfdQsoB8ugpRdZTgxlvWuLlvTIOlFVh8VAh4JRiOItMSgWubaOl4jwkupTgoJKukNRWZqjUYzOH_mW5a-RnGykUDZj33KTJEWLpGurPa9ITkRsiGuXbJsQvZW9xeB83MtlFYuzlDoVjW4Jy3sG9za4P66Eme7EgyBwd2yqSdtBGYxlbWNPRikgpCUlZSl5mOYQtbHW2HqarADgKL1dBXHJi-0OnsJWwy8TPmFbQe6tpgp_FgG9wnnoFUE6tDrzVbkOCFnH-FCw8NyfpoXd7EsTcTpspuT8actyrwUDr__ztVzytzZyuStMTlD_p_xlnx-y_UjFV__qwPT_JB_yw_S_DX26KMiouIzg3KUET0XAeVZ5ufQmvuR1RzH74Eep5Sf036jywDetqvlke3EycL8NmnvFsws9FUtPJFzCgFpSQ9stgU2zlEg-Uz_h3uQZdySJv_h3pSVRlsrOlszzxHozuOrc3dVc-MH-Tn_y-X0kedZvpoJDLezFdvz_-vOv1jVzSubuPtTl_-3mwFZab28I0fyVtddycSMnthNb0-zOKGjYCNbUpE8mvHrr0zOIAgXJkCWzTyPb5_zRDa-MGHGn0VzE_YgxAjAENLzwEQWVPPIJwyfLPXqliwyHJ3Moft3RHqMOhPGI2VLnuyMPDUP_ANloQAwmO-Zz5ys3rM964dbrOcdKSlcYlqwbg2dCnnT7YkTDaHOCCgMxK9fR5XF1BKIVQjHnNHd59CkbIXuaNVBW8jQqLoHSvWOrQ51SLcg3a8m8YQKngijLb12vI_urG8HQC5ypdfeONpESNMR2x4DI1rR8wW9EME9Cg7F3NATzg9kTyKOSTovepQ8RaDG5xk787apjyNX8PTQLtNu_BUIjQEpRaqdhqeO2l1LPX7ahLknvguJubDQyAxidLhma4Vj7MkYV8eSsvdVMMWHtzvar8zJYyk8aePIW8nhSzJcplaitiUHlZ-sMOujmqC_NzeI9VzrwsDuiQfLOSrPbSFOf-Yxz57sAEh7r7A-i9pVAh2osX2l15ybYet_TKCamRl49lcdRtwNbfla2C7Q-XU47UtmpxZfhR2P8BJTaySXdYtocndfgsXJBN_F0dxATT-mKfvsMq-BaG_fN19bOQeHpHMerVcZ-oev88V_7VgyAJ1jBgC-BKC3mK5F9Oihb5PGVaATrR-7dPPpmdCgQ0C5YBO0_D03TwDpr7kuInZcQcFbwywVk8p7CliKxMwbEj7uJF6rOUIm2q7R3SEOo5JvUHTmNrw5cz_4hA9aF_nDaAQbyJpLUo3SsYBCBZagtGHrwKnAhv4wcknZgzdqSfzfG2pN9tVG1OwRM2ebOSBPiyadg9G5NKa1wCjHeFcvKiTPXVkNMfGlmC30sEr-C1bDbeMNA4KUB-IoAJ0zLGvBo24dZLU9HeuQToLS7cFaisYYp9aUCuc4bRut6myjngo_3BQeyoaq6g-z6TCd9XXPMPWKW-6vpftcyFHcqHfEheRDX34XcyR9DbQGRK1kbOYLo-ST6dhlCGfM_k9jAtCJBBTH9-P0d6DbG2S5JujI2K9eoUlwfqdPFvQHcc9ZT4R_ux5uIXo6RaDdDnKEUV4UXcBDgs4swm3ocKwJs_rB-nX4qFY4b-2gtkYVb0oTh4Neq9-RBizSmDUTBmfYD_QtDt1ju28xIf4SnLEuASnTMHgiOUILbf2_CQWYKIW4UIYgwoWgKUKBIUuw-y8gLpd8-5cDhfDpQSvHak0BJ2j4qLE5dWe1Axfyd53OLjkR9_p8ah3aYL8A0eySW7iTDquAvUO43udLq11f7jI9X2YabnsYZ0o-87WIgapvlAf5J4IJ8owgsTz6WMtio7GoLCJkw8UtMe6ttb94OsV2zVjHU1L_TV1HBNNTbjNWDQooWtHjEx8wEBjkfz4M6Kld9yaT-Zn7f2-Kg7hUieXHZEFkLegW4lsJkRq77Y0HWlCopFaKsoZ25LDt_bXcOznjmJZNxm7zw8f3tutQkSAKR4P9ySKdY2ifD9SHG-8Z3eYXIbZ5KV76H5DN7396bfAVrjvFXFpMFZjoI66ZU6pU9A7oUFwkRk2A64IAKXljsDDr8vA3eqlyyifzN9FqwJEkIpH110eWzbd1B5b2Rb8LdI2rx2jDlWcDySV2MzHJuihfcoxedB4wGBnnYsOPOSetJIcM8L9c-BD53cnOXor1BHuKRCpdK65O1Ib9HRLpkJi-l7OVw-QqsT_VRmtw_DUX0wvMNvqo5aJbTCZnJ4SZ4llZ4RetRLzDHQq35lK0jS49St8XjGbnDZfwZ2jMehCTyc2HmjP5S3gS9WF989JGKn6obBqfDx7Ir8CcFvu9VtcvA8-L3a0RC0diKVtNc2Q_354bbekQTloqWALRQbZjjQ7meOEAA0wpGYPfKTwoIGDZce_Aff4U9ev5lbr4JrMaeTPUiMwqYNS-EAvV-U5TSZQ-pgo1alLCt-N0vlHvqcTl5VBOFbzTHmCgRyg9fq2ByXqYfjooljN1xYelDCzE1UvUmGZkAfYD-ysOtUT2xpQodvyxFh7EbWW7k28k1sbwpsE49qAMll8SZHTVrkAUWGKkc07I4F6as_ePD0lIuRBxYyu7s9NLEXMpqa5IYJ72PkClxm4kthFoDdMVL_E3GTAiDC7olimO0rtdhGl75Cs8sSj6Cem1fHvnHmn3v2Drv-zwDxaJbY5B11Oj_BbolBENLzJGgbRE521D-7X1eXc7A1JM3uCgOJKswl6Qujf3c9HHvOhtOYioowmVfDi81G8LTi9p5RkBpX9GYB-p-oBcbwcdWs0FdpB8No-ov06YBr49UtA_hAzDOstWUvOoeaAk0fbbIPm1nNxmwdpwxeXkdIdpzvhxaWZbnetHE4XOFk0ZTnpX9y_20U1IM3sFpl6MoMYvvYMfZpf_Xw8gJ3V7hnml3c0sdEZWRFaLKkDu7ouQNB_ciFCiYxvEUMJbc60a6bM6WRkhhb0KkkLep18Y0f1PTaYJZxrQCYj-Ifye6o4WGXMXd9mnRB-BGPy4y8Lppa2shssM5MUADrZBCoskQFeYtL1rgst7RkCtsywFpbi8x4bYkvXd28rKTf7MepuiBVevENXOlru7A8Pl5BmbQ1wDP7uNW9MilW_7GUlwpBXo7pnEo5HkJ2Ndo1kUx-lRW6fgd2n5KRUPHKnpXjJjTnmYIHrKnY3CSzYP6c2BiYe6kxDx829E7PJVqkvaEx1i8bk-4fVTD83o_oXwrW7c-nGGzQNtG0xAiK1tGj3KnmhLI4wJzaPNWJvtXz6E_fuKNkJadflqc9Dq-Ht8n7lQDQ6G2BeaNDOZQLwt1fLqafBM8F6vBv9hKlA-kOzYEZh7A53XLYECo8pwsUUOMOifJLKt2Ng78rp4c_sG-km7hfJrWoMPxFSHtIhL7FUxYns18hvCi1zNYpNyCug8Yp81pSjrksvF9nNMlTrkFKwOcvwimV7u1QVvZmbSgNYXfjtgrIqtfMhkyTjPpmtM9knPHNw9cpnvSEbUrY-lnKgONLjLPRrd-2-jgjmQSREjjrdCZIhZBsYqNudVQwd2-7zz2NBa0RkOLBoPe_iiCNXJOcE0xrwCUvGEw9JCINDfZn6Jtx7eqPKsH2KTxEBgTKbzE2y_CUjfN3pknnsg-4oD8IS9CgLeikjD5M5uwqtRFRetflztH-R1bmeCCRHEcY-wWZZtcGQJZZr9JrxDieRDVkA254fzIPh474qJVN8atAPEGA2KcqDRvyDgPyaePBRWxYrVPEtQBC0POYCahyI7qOq2Un4jAJHvBD8CgR0K0LqbO0pPXRqteuL8rRQu2LdBl2dIL4o46dUW721PQWGyHY88k4xn8dzI0wpW6m2-rh08HZEqHNO01N5J3cu6flCMbK02MbyIRGIUsutG7boPewXLdjBK6GVjwub1hIbDC3Ua7YtTh-A1I0srYY2LrWzfkIdg4lNjJWx9Qycn06SPFQwAK5SucUlCgMWLySiLuL5JKJRi3yOwH4Y87EQfcKEPeQX2rXuEBxWkOP9Ba9LGthV60ie49ovF8OTKWuAM99d1UcuY1PVOX1x_5_2lo33duiyh02l3mlHasVgW5RL7pSUIOmKM9TYsAmT0C7iMre297RWONTU3rA5Z2fGP3dcG12fDfo6cds-eDBwVy3AiwitoVfCapZnf3168f56SjfbnlleIDsnMrc8gYuneirCFg2Hr8VzgzZWaNUt_5ATvWga4eSBLwL55qRfdRDd4c9gHSlxP4cQpDgsHh48-e1KJ5quGQXMsdVkDB_aQeICA_H82Rri0nMve0AIlOxHWDJeYopW8626kDO8ZFO943L2QZ769XNi70Ve6DgNCm83f6FXywJ7y93u5YwDeJoe7N0omKOdgf5i9D41-Lu2_elOpfWlqFa-enyUfJrPbYkTJHUCXyMqKiY-HfcOJJGJ9Bk0h3363TQ15PgOuNyHGTX0YZL254w4G7eGQBnFXgf4YCPe6fwcWMa3BXBWp0sWBsSjOy0g3KB-ZGNm_iGNjyEs8UCgzQbxhIFC4gabyi8puBd-C2a0qOHHOHoietma0Uf7okVaveTFw-Sx7tdZpV1DczV36scybI_rGcNaH91AlL3ZFT9n3r66k0jwmWdqFvueZwFiczktTuTEMczo-lRmqanl7RQunVTz52GudteIPqqmssyvxkyofAkilm2bN-oXNwZXNHvRbUI7M0zyvDtzCeXcZVSIXVL1Uc9GZFLzvpH-1YU3UDys7istf409SX_7aEgq6dgsrOicUsse0dMpWjbCRAfq4Uo6KI-A0sHfPCyxUmq_8rxFodhB7xY1zlvUFdaUldYUJyfwvsJ6Hss9SMw00ghHFs0ZX-Zrp-qYoiM0sZ0TzUptscldiJeApiacMJNI_xJsqM59pazCyFf6nGiwMqPpc8emzk6FWV-xrsyLPa8uXUg7DYeB8gIiaDVyLezQD7bLIg_EmRsyTh-Juo_xP0-IBnDYp4Bhup9llncu02JQQyVFrwbOJeCIK9V5vMtyHypTrnsC0-aYYqaUV25prO7x-vj8tTAFrBt-9Oyg-bLSfsHEkZaeu3vHBNILW1Ocrr8EoLbWeCQwm1WczTuiAYlAC6UC1eLe4KhJLWRK2z2ZJgz05zCOwUSZgwh3tyz9guD_ado7W6jqpaybSUN1QwuDzow_EVnNb2D0q31l0rhV8pPqx-RTU9_3OO-lwZyfdA8083uQSrMPAPRebzFFU7xUtyYxYLJvQoFlQboaf7i_csyc6rLzLlNY9ur5CWG1yaAzyDOP3bgn2uFVyONDdAi8ctLQjVu6CGaDgQ8J50MktDaUEFr5K-AzTi_kij_6hPg-gNs2f3v4Tys1B16oFLZzRW_UKV1SbfWLiBoW9ayeNR5xe4Bl22hZ8UlEQbh5ZfWMziA5tLDuEK0UMXgqZ1Eq1A3H57hAkcUONBJJWxeWA2N7741Ib_8f6_MeJ_3m
' URL: http://www.plantuml.com/plantuml/uml/lJrRUzisik_v5JpEwQdSs3g-tqutMrcYRIMwLQBZU3TTVHG9sQmfKajITjni-ziFRYHdG81Mqlss3x48O0R0O31tiZ-bcPjagqNuAdq8egMRk0lB2zqqRMLP4inM6UbwSJG9VYFMpglxm2UM5oHUI5wzugEi5adt3e-iBwyiQ_iBnPK5tk_MpN3ScKwwVxFFh23AhBzO1wZxl3TilqVzkqTem7lx5dNlxw7kyV1wq9aKi1Yv_N7K6dJipbH5qX1WrXjhTzFw0Io2WK_9vwKR-SH_JvxFhDbpHdXhjbY2f_Gy_YmUARelLeFzshHsFX_jRvKFnnvyE8OFC_0mtmCFHx3dQ0uUl4FmiBy37dPs8GoSPm_DGy233uUvSDZn4PpK1GydSA7UAOJnuJmGvX0EEu2Jpk4MN8Z0Fu0zS58N4kGKajU5CCTeeN2U6Le1dFGKdjmUfC4-Ue0hc4Di7bpEFje2F3a27-Rmv8xXWty2iS6UNOXW1yxZeQE7-_7Wmov4VGetjmDHdy9Zt86eTo5vJo1v2UmXaAls888P77QCzWFPvGGT2IJlBbpRBheoaCaFuJ0NBlGGhc0V8l0XGMPe1N1j1FL0fZY1Ht88X_dm67SGtI0dxi6UETps328uHDk6E_LWpmmIP1_THWXp0ESvX1pYmStvQDMmnuNOvd051v061t2d-x3d1FB10RebSDKxY7VW2WxXslRXVaxHGk7c3Y55NRHGYEq4oHsuWbEq7uXw3hSmGyS8MSo7TDj35ntn0P8xYAkGi8FBsK5N1i8GTDfeS_2U7a1MtaN23iatfDeGly7b7A6B0NjsaIw12pr2fm2fSu3O4kvd3n9a3vBt5663XtK0ZuJ0BSpWi5su1H-96lYmWmGAV228Hv4GGk8MNKt4_d2XUuYYa0OUHEr3Yhfms15YPKZUKwIpa795OX0n1T9PiES8dlO9qlNeraCYkd2U8yIma0Ppk3O2wNO4KHyZLO0E2wvw1eSTmvuzY6qF8jX5TWXI7qWx8nQ3g7r8a6Dqvo2J7o2nZYWAUqxG5X2_8Rw6-pc2Qpk0Qzk1l3D7nWB4TWHvPn-YFaIA7wbtP6WYoOSCCpWFWSFco911znHPn71I7wq0eZw5X3-55Ds5mqxWVWZ4vY5vWDW5dJOo5X3lm5MVe5iF2JA320WwEUH98Fc6xZP4lOSq1aGzGmOJfCuCKUV8-ftxH47qE36uHSZSGZOUCbnyeuk3R71aJoETYqY3D3ZIxOYba5R1clNOPD8WpmwPWiZ2GWuJOYbaCIBTZlWBkH68Mx5HTM1IpKX7OMwTcKuNEQVeLY25XIGTqZV8zK0c0DAioEH4-WRfJyJKoBT4Nis1KQOZOOtk619x-9AUcjGizbsEJ0OvSbkH1ZyoIcxa7o1zWnnQ9FQGI4OM5XAlHsPHUMJqlCtMXMUov93EHNOkifgHEaSw2YaVPD4ZRnqvJ4Yh87iQMMN8SKO67z9Ho9f5jWgozP6RXmnBvBgZq0ho-P3eH_u1ijUGAOW23iWgGouRykEH0OiSMkHa8SCIkNdOyoOcjmY5Yb2O16aLvByXhO-2EyY-GKO8YdOXhmPPFYYGXenhPESYI-70w62Wg1hoDf39YRmd5DT3NZIo550S35cCIBSZjmX5RP15Zyn7v0aXKnt5sv2zXjnm5Cz1RZWoxv4rYynX5Dn1bWyArE30uAufqdDiD19HR0P5If4TXGAgA1Q8F25asgB01egTeT0AYaBDZUuAii6HHO_y0-JK8uyBHOTGZ0uvcYZgYIA_oAj1yG8KBfiR_H3ahg1e2exdd9ZYXoXEYMARAC25meme68A2oYYoYAEHnYW72YkW612AA24N50KfaFU40cd8L4V6DJ7weoW-XGBHACgE0juu-BPZZ37CJC4tv0IZC0cENEsOF7mKtqKk0Gg-eIWkYeSYFmHvaBl690OAUADO4tRTZqqXNHJQ9qO_4KLwK5O7UtQxfdZRiI_SectwpnkH6ciyv1cbl_-ooVhIrIpDWcoLaPiuyHkFRhWYnO3y1nkOn9cRaPe1hk-FurN4SbQD8FB9PvxgeaCUuy1d0x9WGTVGcENjz5_Ml5Y53PS_RLapWN2pJ7ELwvlm-G6-z3wOP-FuAOMDY-1pEmvNYqY_Xg8R0hqXaPSyBpCASXx6taE-goqAt2smR5dnAbFwQKjNDmtpGtMhO-tc3T7UVltouGYq0v_yEtVmUvvFRSyy9PbgofPElM1vJv8pcO8LJQia8L46SfQprNpE1adtF5g5eIQpoLPf65XqNQV4fzrn718teYFcRfXAw4UIpCFu2IAKJG98yXt3jLpHrGtvtqcM47THN1UwyqRmMD89t1jEj0ealqsIaJYDsLc0NKWut0IELfwW7bJ3gxwRkPhkd14CtJheBIiaqLrshp2R5fLfx3o8WlJU5jY3E6fK-ZgaqbUmcUopgLNAHt2UUwEsDZO1OxAURbHGN-7I2zjfNqtFhoykxB4cTpzTke8n0GR4nFJq-RCa0UEQSxh_LfAupogx69bw1XXLpBx3s-Say-vL1YTFWiALbNFPEgMRbgmp9gwUyGNRAdHfv3jzDw9a0nsRjQD1cyBwvPtuDWpycj1M_oA95n86y0hhQHIwuOqNnYcfyWkV5Pw3EFxAySqCHDxz1HCCei8KKszupNZOk0RHlWu7XtjA0gemPkhTAvehjzr0lWwzqFtO9w5oQuA8_eeygjwB4KAePKb0qZFB5Zya9ULJWv_eF0Z9m5rGKBhu8Be3zs19ftoYjiMPvTsx2UXOn7um3uYPcxUBPV19tXGBlIEKvyHQsUxWQj_Glc9bnP9PHrfsg3i29AFW5t8l35xiHe8N7Ufk0NoGzkMs6BZSc8GlUYexnmiOIOen38nctBvY28eEJ5Fbp8cRD3129yX2GOzUa6O_YaM_1THwFd_cOneP-nTiYtUoeyW7ScF1D9hTsfBBOc-re9GU9R57qbGLxeRU1hKHK_Ukn5eYb8Sr9iiu3R8uUHRignu6Q-CtXv46yNTxEFXWZnrxV6PzN8JjEA9cGKQI7oNYjvAnKT_RXknjyaLi5hnPMKs5A-G5bYU469XEKp2mXfagkDS6ndCQC34XczDVkIHSbXHzllnHkIZ5cQXgHHo9GRtUaOWarER5PMrS3AjuQlG8e6UjjX3SpRmHxCTG6ARBqqRAiIfJOFD6Wk7jLXMFJdoli-5rTG3Oia47lBnrkWSAGkrWroDY7s07VvIMKxTdJo-6utxBcNOxzi3fNdJPXP4gT8D3Vbhv9_i-_TVVtTjeqga4GQb34_bkuhVfSgcqIflNpiNqP1FXdroFHaDw1pjJFXEzZvFkS32X_1lJ--RttUMFNRhCEv9iMKpUVY19IiM2yxmax7vo2onjYgDhA0EQt3cbScwpwSLXIBoiqHP_uoHjPZ55heASdT7LosSwuIhoc11g1ZuzYY2ZzAFkz6FUxQ-MOU2vpBdUVciLpKv224LzTaOlvcOX8FxGdG3W8aNtzeQNL3h7TtJZT9lY1wEi-DNW8484iLQXdafXnBiL9RbmWwZX9dTfBXjADK5Nub8lD76zp9A5i_AnJw9Lool5TBMzaP7FMIbk0Y-Ew1No625SpoCXO_YOsbnqxtHC_42WrSwubAaWTY_414_KpusVM0T5ro2F_0hSy4QRFLGaZkFEGWN78bwbf4sFve7gLl984VHP2uBFXuqIgbzU7ZQc6t5hnsrxzyHx6CNBrT8qg4fcXzAk7I-MSKI7GJfhEXH2wucxPIqYieYZm1CIGPWWTiI8v3Uy72ErPj4Cm3Gf2Gi7y7qXAcylMHCpYzbVnWyy896H1MKmTcqrMs0tRCjwnmPtwS2tXVGppoNCoVG-VYhcQP2r3dIzurpld6xYvA7OD_G7BX9wyufjY66DwWYsYTS-tHqGoQ_PfkmaYPE-C77OOWgx1uxBugKqYzYTg7e_yJ9WvvjRWnS12NsnLYzUFil3XyQdT7LqS0qTY6IZTjdLq74CDmWx97E3CENNKlN2kHhXzXOrqOaJBCX5d2pSBED2ZhLTPnIswL5fdfLzL6f7y-1kHPcT2MDaxREdnePFXpVdVFp6bhNnJF_RxlUtVNz32CLY2HtRQNLxa-dvxNJGwjk2K_Ch9PQkLorbtpfQnOvM2oh_wSbhbKXbKHUjwvupbOi3FjCNiAQcqtLwTZFYeXukjjaVTfXMxiW-4UJrvJd4dI1TXkwpjFN17daCbXqJzvNecP2vkmepfsWgEALoi8sS8qWOsdx0iJGI5cFZOKMF1oGBewbqUfO9OPTZJAZNaD23JUIFCo766RgyRyiouIi4XTQzuM7d9-xIFKj_1SOJg6w9LyBCHTw9s6BWXl6TmhM3wrvlQhUlXeN3-lsddU-5fq4lpCYD6F7UyR-iDOgfxLDfdQsoB8ugpRdZTgxlvWuLlvTIOlFVh8VAh4JRiOItMSgWubaOl4jwkupTgoJKukNRWZqjUYzOH_mW5a-RnGykUDZj33KTJEWLpGurPa9ITkRsiGuXbJsQvZW9xeB83MtlFYuzlDoVjW4Jy3sG9za4P66Eme7EgyBwd2yqSdtBGYxlbWNPRikgpCUlZSl5mOYQtbHW2HqarADgKL1dBXHJi-0OnsJWwy8TPmFbQe6tpgp_FgG9wnnoFUE6tDrzVbkOCFnH-FCw8NyfpoXd7EsTcTpspuT8actyrwUDr__ztVzytzZyuStMTlD_p_xlnx-y_UjFV__qwPT_JB_yw_S_DX26KMiouIzg3KUET0XAeVZ5ufQmvuR1RzH74Eep5Sf036jywDetqvlke3EycL8NmnvFsws9FUtPJFzCgFpSQ9stgU2zlEg-Uz_h3uQZdySJv_h3pSVRlsrOlszzxHozuOrc3dVc-MH-Tn_y-X0kedZvpoJDLezFdvz_-vOv1jVzSubuPtTl_-3mwFZab28I0fyVtddycSMnthNb0-zOKGjYCNbUpE8mvHrr0zOIAgXJkCWzTyPb5_zRDa-MGHGn0VzE_YgxAjAENLzwEQWVPPIJwyfLPXqliwyHJ3Moft3RHqMOhPGI2VLnuyMPDUP_ANloQAwmO-Zz5ys3rM964dbrOcdKSlcYlqwbg2dCnnT7YkTDaHOCCgMxK9fR5XF1BKIVQjHnNHd59CkbIXuaNVBW8jQqLoHSvWOrQ51SLcg3a8m8YQKngijLb12vI_urG8HQC5ypdfeONpESNMR2x4DI1rR8wW9EME9Cg7F3NATzg9kTyKOSTovepQ8RaDG5xk787apjyNX8PTQLtNu_BUIjQEpRaqdhqeO2l1LPX7ahLknvguJubDQyAxidLhma4Vj7MkYV8eSsvdVMMWHtzvar8zJYyk8aePIW8nhSzJcplaitiUHlZ-sMOujmqC_NzeI9VzrwsDuiQfLOSrPbSFOf-Yxz57sAEh7r7A-i9pVAh2osX2l15ybYet_TKCamRl49lcdRtwNbfla2C7Q-XU47UtmpxZfhR2P8BJTaySXdYtocndfgsXJBN_F0dxATT-mKfvsMq-BaG_fN19bOQeHpHMerVcZ-oev88V_7VgyAJ1jBgC-BKC3mK5F9Oihb5PGVaATrR-7dPPpmdCgQ0C5YBO0_D03TwDpr7kuInZcQcFbwywVk8p7CliKxMwbEj7uJF6rOUIm2q7R3SEOo5JvUHTmNrw5cz_4hA9aF_nDaAQbyJpLUo3SsYBCBZagtGHrwKnAhv4wcknZgzdqSfzfG2pN9tVG1OwRM2ebOSBPiyadg9G5NKa1wCjHeFcvKiTPXVkNMfGlmC30sEr-C1bDbeMNA4KUB-IoAJ0zLGvBo24dZLU9HeuQToLS7cFaisYYp9aUCuc4bRut6myjngo_3BQeyoaq6g-z6TCd9XXPMPWKW-6vpftcyFHcqHfEheRDX34XcyR9DbQGRK1kbOYLo-ST6dhlCGfM_k9jAtCJBBTH9-P0d6DbG2S5JujI2K9eoUlwfqdPFvQHcc9ZT4R_ux5uIXo6RaDdDnKEUV4UXcBDgs4swm3ocKwJs_rB-nX4qFY4b-2gtkYVb0oTh4Neq9-RBizSmDUTBmfYD_QtDt1ju28xIf4SnLEuASnTMHgiOUILbf2_CQWYKIW4UIYgwoWgKUKBIUuw-y8gLpd8-5cDhfDpQSvHak0BJ2j4qLE5dWe1Axfyd53OLjkR9_p8ah3aYL8A0eySW7iTDquAvUO43udLq11f7jI9X2YabnsYZ0o-87WIgapvlAf5J4IJ8owgsTz6WMtio7GoLCJkw8UtMe6ttb94OsV2zVjHU1L_TV1HBNNTbjNWDQooWtHjEx8wEBjkfz4M6Kld9yaT-Zn7f2-Kg7hUieXHZEFkLegW4lsJkRq77Y0HWlCopFaKsoZ25LDt_bXcOznjmJZNxm7zw8f3tutQkSAKR4P9ySKdY2ifD9SHG-8Z3eYXIbZ5KV76H5DN7396bfAVrjvFXFpMFZjoI66ZU6pU9A7oUFwkRk2A64IAKXljsDDr8vA3eqlyyifzN9FqwJEkIpH110eWzbd1B5b2Rb8LdI2rx2jDlWcDySV2MzHJuihfcoxedB4wGBnnYsOPOSetJIcM8L9c-BD53cnOXor1BHuKRCpdK65O1Ib9HRLpkJi-l7OVw-QqsT_VRmtw_DUX0wvMNvqo5aJbTCZnJ4SZ4llZ4RetRLzDHQq35lK0jS49St8XjGbnDZfwZ2jMehCTyc2HmjP5S3gS9WF989JGKn6obBqfDx7Ir8CcFvu9VtcvA8-L3a0RC0diKVtNc2Q_354bbekQTloqWALRQbZjjQ7meOEAA0wpGYPfKTwoIGDZce_Aff4U9ev5lbr4JrMaeTPUiMwqYNS-EAvV-U5TSZQ-pgo1alLCt-N0vlHvqcTl5VBOFbzTHmCgRyg9fq2ByXqYfjooljN1xYelDCzE1UvUmGZkAfYD-ysOtUT2xpQodvyxFh7EbWW7k28k1sbwpsE49qAMll8SZHTVrkAUWGKkc07I4F6as_ePD0lIuRBxYyu7s9NLEXMpqa5IYJ72PkClxm4kthFoDdMVL_E3GTAiDC7olimO0rtdhGl75Cs8sSj6Cem1fHvnHmn3v2Drv-zwDxaJbY5B11Oj_BbolBENLzJGgbRE521D-7X1eXc7A1JM3uCgOJKswl6Qujf3c9HHvOhtOYioowmVfDi81G8LTi9p5RkBpX9GYB-p-oBcbwcdWs0FdpB8No-ov06YBr49UtA_hAzDOstWUvOoeaAk0fbbIPm1nNxmwdpwxeXkdIdpzvhxaWZbnetHE4XOFk0ZTnpX9y_20U1IM3sFpl6MoMYvvYMfZpf_Xw8gJ3V7hnml3c0sdEZWRFaLKkDu7ouQNB_ciFCiYxvEUMJbc60a6bM6WRkhhb0KkkLep18Y0f1PTaYJZxrQCYj-Ifye6o4WGXMXd9mnRB-BGPy4y8Lppa2shssM5MUADrZBCoskQFeYtL1rgst7RkCtsywFpbi8x4bYkvXd28rKTf7MepuiBVevENXOlru7A8Pl5BmbQ1wDP7uNW9MilW_7GUlwpBXo7pnEo5HkJ2Ndo1kUx-lRW6fgd2n5KRUPHKnpXjJjTnmYIHrKnY3CSzYP6c2BiYe6kxDx829E7PJVqkvaEx1i8bk-4fVTD83o_oXwrW7c-nGGzQNtG0xAiK1tGj3KnmhLI4wJzaPNWJvtXz6E_fuKNkJadflqc9Dq-Ht8n7lQDQ6G2BeaNDOZQLwt1fLqafBM8F6vBv9hKlA-kOzYEZh7A53XLYECo8pwsUUOMOifJLKt2Ng78rp4c_sG-km7hfJrWoMPxFSHtIhL7FUxYns18hvCi1zNYpNyCug8Yp81pSjrksvF9nNMlTrkFKwOcvwimV7u1QVvZmbSgNYXfjtgrIqtfMhkyTjPpmtM9knPHNw9cpnvSEbUrY-lnKgONLjLPRrd-2-jgjmQSREjjrdCZIhZBsYqNudVQwd2-7zz2NBa0RkOLBoPe_iiCNXJOcE0xrwCUvGEw9JCINDfZn6Jtx7eqPKsH2KTxEBgTKbzE2y_CUjfN3pknnsg-4oD8IS9CgLeikjD5M5uwqtRFRetflztH-R1bmeCCRHEcY-wWZZtcGQJZZr9JrxDieRDVkA254fzIPh474qJVN8atAPEGA2KcqDRvyDgPyaePBRWxYrVPEtQBC0POYCahyI7qOq2Un4jAJHvBD8CgR0K0LqbO0pPXRqteuL8rRQu2LdBl2dIL4o46dUW721PQWGyHY88k4xn8dzI0wpW6m2-rh08HZEqHNO01N5J3cu6flCMbK02MbyIRGIUsutG7boPewXLdjBK6GVjwub1hIbDC3Ua7YtTh-A1I0srYY2LrWzfkIdg4lNjJWx9Qycn06SPFQwAK5SucUlCgMWLySiLuL5JKJRi3yOwH4Y87EQfcKEPeQX2rXuEBxWkOP9Ba9LGthV60ie49ovF8OTKWuAM99d1UcuY1PVOX1x_5_2lo33duiyh02l3mlHasVgW5RL7pSUIOmKM9TYsAmT0C7iMre297RWONTU3rA5Z2fGP3dcG12fDfo6cds-eDBwVy3AiwitoVfCapZnf3168f56SjfbnlleIDsnMrc8gYuneirCFg2Hr8VzgzZWaNUt_5ATvWga4eSBLwL55qRfdRDd4c9gHSlxP4cQpDgsHh48-e1KJ5quGQXMsdVkDB_aQeICA_H82Rri0nMve0AIlOxHWDJeYopW8626kDO8ZFO943L2QZ769XNi70Ve6DgNCm83f6FXywJ7y93u5YwDeJoe7N0omKOdgf5i9D41-Lu2_elOpfWlqFa-enyUfJrPbYkTJHUCXyMqKiY-HfcOJJGJ9Bk0h3363TQ15PgOuNyHGTX0YZL254w4G7eGQBnFXgf4YCPe6fwcWMa3BXBWp0sWBsSjOy0g3KB-ZGNm_iGNjyEs8UCgzQbxhIFC4gabyi8puBd-C2a0qOHHOHoietma0Uf7okVaveTFw-Sx7tdZpV1DczV36scybI_rGcNaH91AlL3ZFT9n3r66k0jwmWdqFvueZwFiczktTuTEMczo-lRmqanl7RQunVTz52GudteIPqqmssyvxkyofAkilm2bN-oXNwZXNHvRbUI7M0zyvDtzCeXcZVSIXVL1Uc9GZFLzvpH-1YU3UDys7istf409SX_7aEgq6dgsrOicUsse0dMpWjbCRAfq4Uo6KI-A0sHfPCyxUmq_8rxFodhB7xY1zlvUFdaUldYUJyfwvsJ6Hss9SMw00ghHFs0ZX-Zrp-qYoiM0sZ0TzUptscldiJeApiacMJNI_xJsqM59pazCyFf6nGiwMqPpc8emzk6FWV-xrsyLPa8uXUg7DYeB8gIiaDVyLezQD7bLIg_EmRsyTh-Juo_xP0-IBnDYp4Bhup9llncu02JQQyVFrwbOJeCIK9V5vMtyHypTrnsC0-aYYqaUV25prO7x-vj8tTAFrBt-9Oyg-bLSfsHEkZaeu3vHBNILW1Ocrr8EoLbWeCQwm1WczTuiAYlAC6UC1eLe4KhJLWRK2z2ZJgz05zCOwUSZgwh3tyz9guD_ado7W6jqpaybSUN1QwuDzow_EVnNb2D0q31l0rhV8pPqx-RTU9_3OO-lwZyfdA8083uQSrMPAPRebzFFU7xUtyYxYLJvQoFlQboaf7i_csyc6rLzLlNY9ur5CWG1yaAzyDOP3bgn2uFVyONDdAi8ctLQjVu6CGaDgQ8J50MktDaUEFr5K-AzTi_kij_6hPg-gNs2f3v4Tys1B16oFLZzRW_UKV1SbfWLiBoW9ayeNR5xe4Bl22hZ8UlEQbh5ZfWMziA5tLDuEK0UMXgqZ1Eq1A3H57hAkcUONBJJWxeWA2N7741Ib_8f6_MeJ_3m
' Generated on: 2026-03-12T08:23:12.816015800

@startuml
skinparam classAttributeIconSize 0
hide circle

class Aes256 {
  -{static} WORD_SIZE: int = 4
  -{static} BLOCK_SIZE: int = 16
  -{static} KEY_SIZE: int = 32
  -{static} ROUNDS: int = 14
  -{static} EXPANDED_KEY_SIZE: int = (ROUNDS + 1) * BLOCK_SIZE
  -_expandedKey: byte
  -_tmp: byte
  -_sBox: byte = { (byte) 0x63, (byte) 0x7c, (byte) 0x77, (byte) 0x7b, (byte) 0xf2, (byte) 0x6b, (byte) 0x6f, (byte) 0xc5, (byte) 0x30, (byte) 0x01, (byte) 0x67, (byte) 0x2b, (byte) 0xfe, (byte) 0xd7, (byte) 0xab, (byte) 0x76, (byte) 0xca, (byte) 0x82, (byte) 0xc9, (byte) 0x7d, (byte) 0xfa, (byte) 0x59, (byte) 0x47, (byte) 0xf0, (byte) 0xad, (byte) 0xd4, (byte) 0xa2, (byte) 0xaf, (byte) 0x9c, (byte) 0xa4, (byte) 0x72, (byte) 0xc0, (byte) 0xb7, (byte) 0xfd, (byte) 0x93, (byte) 0x26, (byte) 0x36, (byte) 0x3f, (byte) 0xf7, (byte) 0xcc, (byte) 0x34, (byte) 0xa5, (byte) 0xe5, (byte) 0xf1, (byte) 0x71, (byte) 0xd8, (byte) 0x31, (byte) 0x15, (byte) 0x04, (byte) 0xc7, (byte) 0x23, (byte) 0xc3, (byte) 0x18, (byte) 0x96, (byte) 0x05, (byte) 0x9a, (byte) 0x07, (byte) 0x12, (byte) 0x80, (byte) 0xe2, (byte) 0xeb, (byte) 0x27, (byte) 0xb2, (byte) 0x75, (byte) 0x09, (byte) 0x83, (byte) 0x2c, (byte) 0x1a, (byte) 0x1b, (byte) 0x6e, (byte) 0x5a, (byte) 0xa0, (byte) 0x52, (byte) 0x3b, (byte) 0xd6, (byte) 0xb3, (byte) 0x29, (byte) 0xe3, (byte) 0x2f, (byte) 0x84, (byte) 0x53, (byte) 0xd1, (byte) 0x00, (byte) 0xed, (byte) 0x20, (byte) 0xfc, (byte) 0xb1, (byte) 0x5b, (byte) 0x6a, (byte) 0xcb, (byte) 0xbe, (byte) 0x39, (byte) 0x4a, (byte) 0x4c, (byte) 0x58, (byte) 0xcf, (byte) 0xd0, (byte) 0xef, (byte) 0xaa, (byte) 0xfb, (byte) 0x43, (byte) 0x4d, (byte) 0x33, (byte) 0x85, (byte) 0x45, (byte) 0xf9, (byte) 0x02, (byte) 0x7f, (byte) 0x50, (byte) 0x3c, (byte) 0x9f, (byte) 0xa8, (byte) 0x51, (byte) 0xa3, (byte) 0x40, (byte) 0x8f, (byte) 0x92, (byte) 0x9d, (byte) 0x38, (byte) 0xf5, (byte) 0xbc, (byte) 0xb6, (byte) 0xda, (byte) 0x21, (byte) 0x10, (byte) 0xff, (byte) 0xf3, (byte) 0xd2, (byte) 0xcd, (byte) 0x0c, (byte) 0x13, (byte) 0xec, (byte) 0x5f, (byte) 0x97, (byte) 0x44, (byte) 0x17, (byte) 0xc4, (byte) 0xa7, (byte) 0x7e, (byte) 0x3d, (byte) 0x64, (byte) 0x5d, (byte) 0x19, (byte) 0x73, (byte) 0x60, (byte) 0x81, (byte) 0x4f, (byte) 0xdc, (byte) 0x22, (byte) 0x2a, (byte) 0x90, (byte) 0x88, (byte) 0x46, (byte) 0xee, (byte) 0xb8, (byte) 0x14, (byte) 0xde, (byte) 0x5e, (byte) 0x0b, (byte) 0xdb, (byte) 0xe0, (byte) 0x32, (byte) 0x3a, (byte) 0x0a, (byte) 0x49, (byte) 0x06, (byte) 0x24, (byte) 0x5c, (byte) 0xc2, (byte) 0xd3, (byte) 0xac, (byte) 0x62, (byte) 0x91, (byte) 0x95, (byte) 0xe4, (byte) 0x79, (byte) 0xe7, (byte) 0xc8, (byte) 0x37, (byte) 0x6d, (byte) 0x8d, (byte) 0xd5, (byte) 0x4e, (byte) 0xa9, (byte) 0x6c, (byte) 0x56, (byte) 0xf4, (byte) 0xea, (byte) 0x65, (byte) 0x7a, (byte) 0xae, (byte) 0x08, (byte) 0xba, (byte) 0x78, (byte) 0x25, (byte) 0x2e, (byte) 0x1c, (byte) 0xa6, (byte) 0xb4, (byte) 0xc6, (byte) 0xe8, (byte) 0xdd, (byte) 0x74, (byte) 0x1f, (byte) 0x4b, (byte) 0xbd, (byte) 0x8b, (byte) 0x8a, (byte) 0x70, (byte) 0x3e, (byte) 0xb5, (byte) 0x66, (byte) 0x48, (byte) 0x03, (byte) 0xf6, (byte) 0x0e, (byte) 0x61, (byte) 0x35, (byte) 0x57, (byte) 0xb9, (byte) 0x86, (byte) 0xc1, (byte) 0x1d, (byte) 0x9e, (byte) 0xe1, (byte) 0xf8, (byte) 0x98, (byte) 0x11, (byte) 0x69, (byte) 0xd9, (byte) 0x8e, (byte) 0x94, (byte) 0x9b, (byte) 0x1e, (byte) 0x87, (byte) 0xe9, (byte) 0xce, (byte) 0x55, (byte) 0x28, (byte) 0xdf, (byte) 0x8c, (byte) 0xa1, (byte) 0x89, (byte) 0x0d, (byte) 0xbf, (byte) 0xe6, (byte) 0x42, (byte) 0x68, (byte) 0x41, (byte) 0x99, (byte) 0x2d, (byte) 0x0f, (byte) 0xb0, (byte) 0x54, (byte) 0xbb, (byte) 0x16 }
  -_invSBox: byte = { (byte) 0x52, (byte) 0x09, (byte) 0x6a, (byte) 0xd5, (byte) 0x30, (byte) 0x36, (byte) 0xa5, (byte) 0x38, (byte) 0xbf, (byte) 0x40, (byte) 0xa3, (byte) 0x9e, (byte) 0x81, (byte) 0xf3, (byte) 0xd7, (byte) 0xfb, (byte) 0x7c, (byte) 0xe3, (byte) 0x39, (byte) 0x82, (byte) 0x9b, (byte) 0x2f, (byte) 0xff, (byte) 0x87, (byte) 0x34, (byte) 0x8e, (byte) 0x43, (byte) 0x44, (byte) 0xc4, (byte) 0xde, (byte) 0xe9, (byte) 0xcb, (byte) 0x54, (byte) 0x7b, (byte) 0x94, (byte) 0x32, (byte) 0xa6, (byte) 0xc2, (byte) 0x23, (byte) 0x3d, (byte) 0xee, (byte) 0x4c, (byte) 0x95, (byte) 0x0b, (byte) 0x42, (byte) 0xfa, (byte) 0xc3, (byte) 0x4e, (byte) 0x08, (byte) 0x2e, (byte) 0xa1, (byte) 0x66, (byte) 0x28, (byte) 0xd9, (byte) 0x24, (byte) 0xb2, (byte) 0x76, (byte) 0x5b, (byte) 0xa2, (byte) 0x49, (byte) 0x6d, (byte) 0x8b, (byte) 0xd1, (byte) 0x25, (byte) 0x72, (byte) 0xf8, (byte) 0xf6, (byte) 0x64, (byte) 0x86, (byte) 0x68, (byte) 0x98, (byte) 0x16, (byte) 0xd4, (byte) 0xa4, (byte) 0x5c, (byte) 0xcc, (byte) 0x5d, (byte) 0x65, (byte) 0xb6, (byte) 0x92, (byte) 0x6c, (byte) 0x70, (byte) 0x48, (byte) 0x50, (byte) 0xfd, (byte) 0xed, (byte) 0xb9, (byte) 0xda, (byte) 0x5e, (byte) 0x15, (byte) 0x46, (byte) 0x57, (byte) 0xa7, (byte) 0x8d, (byte) 0x9d, (byte) 0x84, (byte) 0x90, (byte) 0xd8, (byte) 0xab, (byte) 0x00, (byte) 0x8c, (byte) 0xbc, (byte) 0xd3, (byte) 0x0a, (byte) 0xf7, (byte) 0xe4, (byte) 0x58, (byte) 0x05, (byte) 0xb8, (byte) 0xb3, (byte) 0x45, (byte) 0x06, (byte) 0xd0, (byte) 0x2c, (byte) 0x1e, (byte) 0x8f, (byte) 0xca, (byte) 0x3f, (byte) 0x0f, (byte) 0x02, (byte) 0xc1, (byte) 0xaf, (byte) 0xbd, (byte) 0x03, (byte) 0x01, (byte) 0x13, (byte) 0x8a, (byte) 0x6b, (byte) 0x3a, (byte) 0x91, (byte) 0x11, (byte) 0x41, (byte) 0x4f, (byte) 0x67, (byte) 0xdc, (byte) 0xea, (byte) 0x97, (byte) 0xf2, (byte) 0xcf, (byte) 0xce, (byte) 0xf0, (byte) 0xb4, (byte) 0xe6, (byte) 0x73, (byte) 0x96, (byte) 0xac, (byte) 0x74, (byte) 0x22, (byte) 0xe7, (byte) 0xad, (byte) 0x35, (byte) 0x85, (byte) 0xe2, (byte) 0xf9, (byte) 0x37, (byte) 0xe8, (byte) 0x1c, (byte) 0x75, (byte) 0xdf, (byte) 0x6e, (byte) 0x47, (byte) 0xf1, (byte) 0x1a, (byte) 0x71, (byte) 0x1d, (byte) 0x29, (byte) 0xc5, (byte) 0x89, (byte) 0x6f, (byte) 0xb7, (byte) 0x62, (byte) 0x0e, (byte) 0xaa, (byte) 0x18, (byte) 0xbe, (byte) 0x1b, (byte) 0xfc, (byte) 0x56, (byte) 0x3e, (byte) 0x4b, (byte) 0xc6, (byte) 0xd2, (byte) 0x79, (byte) 0x20, (byte) 0x9a, (byte) 0xdb, (byte) 0xc0, (byte) 0xfe, (byte) 0x78, (byte) 0xcd, (byte) 0x5a, (byte) 0xf4, (byte) 0x1f, (byte) 0xdd, (byte) 0xa8, (byte) 0x33, (byte) 0x88, (byte) 0x07, (byte) 0xc7, (byte) 0x31, (byte) 0xb1, (byte) 0x12, (byte) 0x10, (byte) 0x59, (byte) 0x27, (byte) 0x80, (byte) 0xec, (byte) 0x5f, (byte) 0x60, (byte) 0x51, (byte) 0x7f, (byte) 0xa9, (byte) 0x19, (byte) 0xb5, (byte) 0x4a, (byte) 0x0d, (byte) 0x2d, (byte) 0xe5, (byte) 0x7a, (byte) 0x9f, (byte) 0x93, (byte) 0xc9, (byte) 0x9c, (byte) 0xef, (byte) 0xa0, (byte) 0xe0, (byte) 0x3b, (byte) 0x4d, (byte) 0xae, (byte) 0x2a, (byte) 0xf5, (byte) 0xb0, (byte) 0xc8, (byte) 0xeb, (byte) 0xbb, (byte) 0x3c, (byte) 0x83, (byte) 0x53, (byte) 0x99, (byte) 0x61, (byte) 0x17, (byte) 0x2b, (byte) 0x04, (byte) 0x7e, (byte) 0xba, (byte) 0x77, (byte) 0xd6, (byte) 0x26, (byte) 0xe1, (byte) 0x69, (byte) 0x14, (byte) 0x63, (byte) 0x55, (byte) 0x21, (byte) 0x0c, (byte) 0x7d }
  --
  +Aes256(key: byte[])
  -substituteWord(value: byte[]): byte[]
  -rotate(value: byte[]): byte[]
  -addRoundKey(index: int): void
  -times2(b: int): int
  -mul(a: int, b: byte): byte
  -substituteState(): void
  -shiftRows(): void
  -mixColumn(index: int): void
  -mixColumns(): void
  +encrypt(inBlock: byte[], inIndex: int, outBlock: byte[], outIndex: int): void
  -invShiftRows(): void
  -invSubstituteState(): void
  -invMixColumn(index: int): void
  -invMixColumns(): void
  +decrypt(inBlock: byte[], inIndex: int, outBlock: byte[], outIndex: int): void
}

class Cbc {
  -{static} BLOCK_SIZE: int = 16
  -_cipher: Aes256
  -_current: byte
  -_buffer: byte = null
  -_tmp: byte
  -_outBuffer: byte = null
  -_outBufferUsed: boolean = false
  -_overflow: byte
  -_overflowUsed: int
  -_output: OutputStream
  --
  +Cbc(iv: byte[], key: byte[], output: OutputStream)
  -encryptBlock(inBuffer: byte[], outBuffer: byte[]): void
  -decryptBlock(inBuffer: byte[]): void
  +encrypt(data: byte[]): void
  +decrypt(data: byte[]): void
  +encrypt(data: byte[], length: int): void
  +decrypt(data: byte[], length: int): void
  +finishEncryption(): void
  +finishDecryption(): void
}

class DecryptException {
  +DecryptException()
}

class CryptInputStream {
  -{static} FETCH_BUFFER_SIZE: int = 32
  -_parent: InputStream
  -_cipher: Cbc
  -_decrypted: ByteArrayOutputStream
  -_buffer: byte = null
  -_bufferUsed: int = 0
  -_fetchBuffer: byte = new byte[FETCH_BUFFER_SIZE]
  -_lastBufferRead: boolean = false
  --
  +CryptInputStream(parent: JPassInputStream)
  +CryptInputStream(parent: InputStream, key: byte[], iv: byte[])
  +CryptInputStream(parent: InputStream, key: byte[])
  -readFromStream(): void
  +read(): int
  +close(): void
}

class CryptOutputStream {
  -_cipher: Cbc
  -_buffer: byte = new byte[1]
  --
  +CryptOutputStream(parent: JPassOutputStream)
  +CryptOutputStream(parent: OutputStream, key: byte[], iv: byte[])
  +CryptOutputStream(parent: OutputStream, key: byte[])
  +write(b: int): void
  +write(b: byte[]): void
  +close(): void
}

class DataModel {
  -{static} instance: DataModel
  -entries: Entries = new Entries()
  -fileName: String = null
  -password: char = null
  -modified: boolean = false
  --
  -DataModel()
  +{static} getInstance(): DataModel
  +getEntries(): Entries
  +setEntries(entries: Entries): void
  +getFileName(): String
  +setFileName(fileName: String): void
  +isModified(): boolean
  +setModified(modified: boolean): void
  +getPassword(): char[]
  +setPassword(password: char[]): void
  +clear(): void
  +getTitles(): List<String>
  +getEntryByTitle(title: String): Entry
  -getEntryIndexByTitle(title: String): int
}

class DocumentProcessException {
  +DocumentProcessException(message: String)
}

class EntriesRepository {
  -fileName: String
  -key: char
  -{static} CONVERTER: XmlConverter<Entries> = new XmlConverter<>(Entries.class)
  --
  -EntriesRepository(fileName: String, key: char[])
  +{static} newInstance(fileName: String): EntriesRepository
  +{static} newInstance(fileName: String, key: char[]): EntriesRepository
  +readDocument(): Entries
  +writeDocument(document: Entries): void
}

class JPassInputStream {
  -parent: InputStream
  -generatedKey: byte
  --
  +JPassInputStream(parent: InputStream, key: char[])
  +read(): int
  +close(): void
  +getKey(): byte[]
  -readBytes(stream: InputStream, length: int): byte[]
}

class JPassOutputStream {
  -parent: OutputStream
  -generatedKey: byte
  --
  +JPassOutputStream(parent: OutputStream, key: char[])
  +write(b: int): void
  +close(): void
  +getKey(): byte[]
}

interface JPassStream {
  ~{static} FILE_FORMAT_IDENTIFIER: byte = "JPass\ud83d\udd12".getBytes(StandardCharsets.UTF_8)
  ~{static} SUPPORTED_FILE_VERSIONS: SortedMap<Integer, FileVersionType> = Arrays.stream(FileVersionType.values()).collect(Collectors.toMap(FileVersionType::getVersion, Function.identity(), (version, duplicate) -> version, TreeMap::new))
  --
  ~getKey(): byte[]
}

class JPass {
  -{static} LOG: Logger = Logger.getLogger(JPass.class.getName())
  --
  -JPass()
  +{static} main(args: String[]): void
}

abstract class AbstractMenuAction {
  +AbstractMenuAction(text: String, icon: Icon, accelerator: KeyStroke)
}

class CloseListener {
  +windowClosing(event: WindowEvent): void
}

class TableListener {
  +mouseClicked(evt: MouseEvent): void
  +mousePressed(evt: MouseEvent): void
  +mouseReleased(evt: MouseEvent): void
  -checkPopup(evt: MouseEvent): void
}

abstract class TextComponentAction {
  +TextComponentAction(text: String, accelerator: KeyStroke, mnemonic: int)
  +isEnabled(component: JTextComponent): boolean
}

class TextComponentPopupListener {
  -popup: JPopupMenu
  -items: Map<TextComponentActionType, JMenuItem>
  --
  +TextComponentPopupListener()
  -showPopupMenu(e: MouseEvent): void
  +mousePressed(e: MouseEvent): void
  +mouseReleased(e: MouseEvent): void
}

abstract class Worker {
  -parent: JPassFrame
  --
  +Worker(parent: JPassFrame)
  #done(): void
  #showErrorMessage(e: Exception): void
  #stopProcessing(): void
}

class CopiablePasswordField {
  -copyEnabled: boolean
  --
  +CopiablePasswordField(copyEnabled: boolean)
  +isCopyEnabled(): boolean
}

class EntryDetailsTable {
  -{static} FORMATTER: DateTimeFormatter = DateUtils.createFormatter(Configuration.getInstance().get("date.format", "yyyy-MM-dd"))
  -{static} DETAILS_BY_NAME: Map<String, DetailType> = Arrays.stream(DetailType.values()).collect(Collectors.toMap(Enum::name, Function.identity()))
  -{static} DEFAULT_DETAILS: String = { DetailType.TITLE.name(), DetailType.MODIFIED.name() }
  -detailsToDisplay: List<DetailType>
  -tableModel: DefaultTableModel
  --
  +EntryDetailsTable()
  +isCellEditable(row: int, column: int): boolean
  +prepareRenderer(renderer: TableCellRenderer, row: int, column: int): Component
  +clear(): void
  +addRow(entry: Entry): void
  +rowCount(): int
}

class EntryDialog {
  -{static} NULL_ECHO: char = '\0'
  -fieldPanel: JPanel
  -notesPanel: JPanel
  -buttonPanel: JPanel
  -passwordButtonPanel: JPanel
  -titleField: JTextField
  -userField: JTextField
  -passwordField: JPasswordField
  -repeatField: JPasswordField
  -urlField: JTextField
  -notesField: JTextArea
  -okButton: JButton
  -cancelButton: JButton
  -showButton: JToggleButton
  -generateButton: JButton
  -copyButton: JButton
  -originalEcho: char
  -modifiedEntry: Entry
  -newEntry: boolean
  -originalTitle: String
  --
  +EntryDialog(parent: JPassFrame, title: String, entry: Entry, newEntry: boolean)
  +actionPerformed(e: ActionEvent): void
  -fillDialogFromEntry(entry: Entry): void
  -getEntryFromDialog(): Entry
  +getModifiedEntry(): Optional<Entry>
  -checkEntryTitle(): boolean
}

class GeneratePasswordDialog {
  -{static} SYMBOLS: String = "!\"#$%&'()*+,-./:;<=>?@[\\]^_{|}~"
  -{static} PASSWORD_OPTIONS: String = { { getLocalizedMessages().getString(VIEW_WINDOW_UPPER_CASE_LETTERS), "ABCDEFGHIJKLMNOPQRSTUVWXYZ" }, { getLocalizedMessages().getString(VIEW_WINDOW_LOWER_CASE_LETTERS), "abcdefghijklmnopqrstuvwxyz" }, { getLocalizedMessages().getString(VIEW_WINDOW_NUMBERS), "0123456789" } }
  -checkBoxes: JCheckBox
  -customSymbolsCheck: JCheckBox
  -customSymbolsField: JTextField
  -passwordField: JTextField
  -lengthLabel: JLabel
  -lengthSpinner: JSpinner
  -lengthPanel: JPanel
  -charactersPanel: JPanel
  -passwordPanel: JPanel
  -buttonPanel: JPanel
  -acceptButton: JButton
  -cancelButton: JButton
  -generateButton: JButton
  -generatedPassword: String
  -random: Random = CryptUtils.newRandomNumberGenerator()
  --
  +GeneratePasswordDialog(parent: JFrame)
  +GeneratePasswordDialog(parent: JDialog)
  -initDialog(parent: Component, showAcceptButton: boolean): void
  +actionPerformed(e: ActionEvent): void
  +getGeneratedPassword(): Optional<String>
}

class EntryHelper {
  -EntryHelper()
  +{static} deleteEntry(parent: JPassFrame): void
  +{static} duplicateEntry(parent: JPassFrame): void
  +{static} editEntry(parent: JPassFrame): void
  +{static} addEntry(parent: JPassFrame): void
  +{static} getSelectedEntry(parent: JPassFrame): Entry
  +{static} copyEntryField(parent: JPassFrame, content: String): void
}

class FileHelper {
  -{static} OPEN_ERROR_CHECK_PASSWORD_ERROR_MESSAGE: String = "An error occured during the open operation.\nThe password might be incorrect.\n(Error: %s)"
  -{static} CREATE_FILE_QUESTION_MESSAGE: String = "File not found:\n%s\n\nDo you want to create the file?"
  -{static} OPERATION_ERROR_MESSAGE: String = "An error occured during the %s operation:\n%s"
  -{static} FILE_OVERWRITE_QUESTION_MESSAGE: String = "File is already exists:\n%s\n\nDo you want to overwrite?"
  -{static} JPASS_DATA_FILES: String = "JPass Data Files (*.jpass)"
  -{static} XML_FILES: String = "XML Files (*.xml)"
  --
  -FileHelper()
  +{static} createNew(parent: JPassFrame): void
  +{static} exportFile(parent: JPassFrame): void
  +{static} importFile(parent: JPassFrame): void
  ~{static} importFileInBackground(fileName: String, parent: JPassFrame): void
  +{static} saveFile(parent: JPassFrame, saveAs: boolean): void
  +{static} saveFile(parent: JPassFrame, saveAs: boolean, successCallback: Runnable): void
  +{static} openFile(parent: JPassFrame): void
  +{static} openFileInBackground(fileName: String, parent: JPassFrame): void
  ~{static} handleFileNotFound(parent: JPassFrame, fileName: String, password: char[]): void
  -{static} showFileChooser(parent: JPassFrame, taskName: String, extension: String, description: String): File
  -{static} checkFileOverwrite(fileName: String, parent: JPassFrame): boolean
  -{static} checkExtension(fileName: String, extension: String): String
}

class JPassFrame {
  -{static} localizedMessages: ResourceBundle
  -{static} LOG: Logger = Logger.getLogger(JPassFrame.class.getName())
  -{static} instance: JPassFrame
  +{static} PROGRAM_NAME: String = "JPass Password Manager"
  +{static} PROGRAM_VERSION: String = "1.0.7-SNAPSHOT"
  -popup: JPopupMenu
  -topContainerPanel: JPanel
  -jpassMenuBar: JMenuBar
  -searchPanel: SearchPanel
  -fileMenu: JMenu
  -editMenu: JMenu
  -toolsMenu: JMenu
  -helpMenu: JMenu
  -toolBar: JToolBar
  -scrollPane: JScrollPane
  -entryDetailsTable: EntryDetailsTable
  -model: DataModel = DataModel.getInstance()
  -statusPanel: StatusPanel
  -processing: boolean = false
  --
  -JPassFrame(fileName: String, locale: Locale)
  +{static} getInstance(): JPassFrame
  +{static} getInstance(fileName: String): JPassFrame
  +getEntryTitleTable(): JTable
  +getModel(): DataModel
  +clearModel(): void
  +refreshFrameTitle(): void
  +refreshEntryTitleList(selectTitle: String): void
  +refreshAll(): void
  +exitFrame(): void
  +getPopup(): JPopupMenu
  +setProcessing(processing: boolean): void
  +isProcessing(): boolean
  +getSearchPanel(): SearchPanel
  +{static} getLocalizedMessages(): ResourceBundle
}

class MessageDialog {
  -{static} LOG: Logger = Logger.getLogger(MessageDialog.class.getName())
  +{static} DEFAULT_OPTION: int = -1
  +{static} YES_NO_OPTION: int = 0
  +{static} YES_NO_CANCEL_OPTION: int = 1
  +{static} OK_CANCEL_OPTION: int = 2
  +{static} YES_OPTION: int = 0
  +{static} OK_OPTION: int = 0
  +{static} NO_OPTION: int = 1
  +{static} CANCEL_OPTION: int = 2
  +{static} CLOSED_OPTION: int = -1
  -selectedOption: int
  --
  -MessageDialog(parent: Dialog, message: Object, title: String, icon: ImageIcon, optionType: int)
  -MessageDialog(parent: Frame, message: Object, title: String, icon: ImageIcon, optionType: int)
  -initializeDialog(parent: Component, message: Object, title: String, icon: ImageIcon, optionType: int): void
  -createButton(name: String, option: int, icon: ImageIcon): JButton
  -getSelectedOption(): int
  +actionPerformed(event: ActionEvent): void
  -{static} showMessageDialog(parent: Component, message: Object, title: String, icon: ImageIcon): void
  -{static} showMessageDialog(parent: Component, message: Object, title: String, icon: ImageIcon, optionType: int): int
  +{static} showWarningMessage(parent: Component, message: String): void
  +{static} showErrorMessage(parent: Component, message: String): void
  +{static} showInformationMessage(parent: Component, message: String): void
  +{static} showQuestionMessage(parent: Component, message: String, optionType: int): int
  +{static} showPasswordDialog(parent: Component, confirm: boolean): char[]
  +{static} getIcon(name: String): ImageIcon
  +{static} getIcon(name: String, width: int, height: int): ImageIcon
  -{static} getResourceAsString(name: String): String
  +{static} showTextFile(parent: Component, title: String, textFile: String): void
}

class SearchPanel {
  -{static} CLOSE_BUTTON_ACTION_COMMAND: String = "close_search_panel_button"
  -{static} SEARCH_PANEL_CLOSE_ACTION: String = "jpass.search_panel.close"
  -label: JLabel
  -criteriaField: JTextField
  -closeButton: JButton
  --
  +SearchPanel(searchCallback: Consumer<Boolean>)
  +setVisible(visible: boolean): void
  +setEnabled(enabled: boolean): void
  +actionPerformed(e: ActionEvent): void
  +getSearchCriteria(): String
}

class StatusPanel {
  -label: JLabel
  -progressBar: JProgressBar
  --
  +StatusPanel()
  +setText(text: String): void
  +getText(): String
  +setProcessing(processing: boolean): void
}

class SvgImageIcon {
  -{static} LOG: Logger = Logger.getLogger(SvgImageIcon.class.getName())
  -{static} SVG_UNIVERSE: SVGUniverse = new SVGUniverse()
  -name: String
  -width: int
  -height: int
  -diagram: SVGDiagram
  -dark: boolean
  -{static} darkLaf: Boolean
  --
  +SvgImageIcon(name: String)
  +SvgImageIcon(name: String, width: int, height: int)
  -update(): void
  -getIconURL(name: String, dark: boolean): URL
  +getIconWidth(): int
  +getIconHeight(): int
  +paintIcon(c: Component, g: Graphics, x: int, y: int): void
  -paintSvg(g: Graphics2D, x: int, y: int): void
  -paintSvgError(g: Graphics2D, x: int, y: int): void
  +getImage(): Image
  -{static} isDarkLaf(): boolean
  -{static} lafChanged(): void
}

class TextComponentFactory {
  -TextComponentFactory()
  +{static} newTextField(): JTextField
  +{static} newTextField(text: String): JTextField
  +{static} newPasswordField(): JPasswordField
  +{static} newPasswordField(copyEnabled: boolean): JPasswordField
  +{static} newTextArea(): JTextArea
  +{static} newTextArea(text: String): JTextArea
}

class ClipboardUtils {
  -{static} EMPTY_CONTENT: EmptyClipboardContent = new EmptyClipboardContent()
  --
  -ClipboardUtils()
  +{static} setClipboardContent(str: String): void
  +{static} clearClipboardContent(): void
  +{static} getClipboardContent(): String
}

class EmptyClipboardContent {
  +getTransferDataFlavors(): DataFlavor[]
  +isDataFlavorSupported(flavor: DataFlavor): boolean
  +getTransferData(flavor: DataFlavor): Object
  +lostOwnership(clipboard: Clipboard, contents: Transferable): void
}

class Configuration {
  -{static} LOG: Logger = Logger.getLogger(Configuration.class.getName())
  -{static} instance: Configuration
  -properties: Properties = new Properties()
  --
  -Configuration()
  -getConfigurationFolderPath(): File
  -getValue(key: String, defaultValue: T, type: Class<T>): T
  -getProperty(key: String): String
  +is(key: String, defaultValue: Boolean): Boolean
  +getInteger(key: String, defaultValue: Integer): Integer
  +get(key: String, defaultValue: String): String
  +getArray(key: String, defaultValue: String[]): String[]
  +{static} getInstance(): Configuration
}

class Constants {
  +{static} FILE_MENU: String = "menuBar.fileMenu"
  +{static} EDIT_MENU: String = "menuBar.editMenu"
  +{static} TOOLS_MENU: String = "menuBar.toolsMenu"
  +{static} HELP_MENU: String = "menuBar.helpMenu"
  +{static} FILE_MENU_NEW: String = "fileMenu.new"
  +{static} FILE_MENU_OPEN_FILE: String = "fileMenu.openFile"
  +{static} FILE_MENU_SAVE: String = "fileMenu.save"
  +{static} FILE_MENU_SAVE_AS: String = "fileMenu.saveAs"
  +{static} FILE_MENU_EXPORT_TO_XML: String = "fileMenu.exportToXML"
  +{static} FILE_MENU_IMPORT_FROM_XML: String = "fileMenu.importFromXML"
  +{static} FILE_MENU_CHANGE_PASSWORD: String = "fileMenu.changePassword"
  +{static} FILE_MENU_EXIT: String = "fileMenu.exitMenu"
  +{static} PASSWORD_ENTER_PASSWORD_REQUEST: String = "password.enterPasswordRequest"
  +{static} PASSWORD_GENERATE_PASSWORD_REQUEST: String = "password.generatePasswordRequest"
  +{static} PASSWORD_PASSWORD_NOT_MODIFIED: String = "password.passwordNotModified"
  +{static} PASSWORD_SUCCESSFULLY_MODIFIED: String = "password.successfullyModified"
  +{static} PASSWORD_PASSWORDS_NOT_IDENTICAL: String = "password.passwordsNotIdentical"
  +{static} PASSWORD_GENERATE_PASSWORD: String = "password.generatePassword"
  +{static} PASSWORD_PASSWORD_LENGTH: String = "password.passwordLength"
  +{static} PASSWORD_GENERATED_PASSWORD: String = "password.generatedPassword"
  +{static} PASSWORD_CAN_NOT_GENERATE_PASSWORD: String = "password.canNotGeneratePassword"
  +{static} EDIT_MENU_ADD_ENTRY: String = "editMenu.addEntry"
  +{static} EDIT_MENU_EDIT_ENTRY: String = "editMenu.editEntry"
  +{static} EDIT_MENU_DUPLICATE_ENTRY: String = "editMenu.duplicateEntry"
  +{static} EDIT_MENU_DELETE_ENTRY: String = "editMenu.deleteEntry"
  +{static} EDIT_MENU_COPY_URL: String = "editMenu.copyURL"
  +{static} EDIT_MENU_COPY_USERNAME: String = "editMenu.copyUserName"
  +{static} EDIT_MENU_COPY_PASSWORD: String = "editMenu.copyPassword"
  +{static} EDIT_MENU_CLEAR_CLIPBOARD: String = "editMenu.clearClipboard"
  +{static} EDIT_MENU_FIND_ENTRY: String = "editMenu.findEntry"
  +{static} TOOLS_MENU_GENERATE_PASSWORD: String = "toolsMenu.generatePassword"
  +{static} HELP_MENU_LICENSE: String = "helpMenu.license"
  +{static} HELP_MENU_ABOUT_JPASS: String = "helpMenu.aboutJpass"
  +{static} VIEW_WINDOW_TITLE: String = "viewWindow.title"
  +{static} VIEW_WINDOW_URL: String = "viewWindow.url"
  +{static} VIEW_WINDOW_USER: String = "viewWindow.user"
  +{static} VIEW_WINDOW_USER_NAME: String = "viewWindow.userName"
  +{static} VIEW_WINDOW_MODIFIED: String = "viewWindow.modified"
  +{static} VIEW_WINDOW_CREATED: String = "viewWindow.created"
  +{static} VIEW_WINDOW_PASSWORD: String = "viewWindow.password"
  +{static} VIEW_WINDOW_REPEAT: String = "viewWindow.repeat"
  +{static} VIEW_WINDOW_NOTES: String = "viewWindow.notes"
  +{static} VIEW_WINDOW_SETTINGS: String = "viewWindow.settings"
  +{static} VIEW_WINDOW_CUSTOM_SYMBOLS: String = "viewWindow.customSymbols"
  +{static} VIEW_WINDOW_UPPER_CASE_LETTERS: String = "viewWindow.upperCaseLetters"
  +{static} VIEW_WINDOW_LOWER_CASE_LETTERS: String = "viewWindow.lowerCaseLetters"
  +{static} VIEW_WINDOW_NUMBERS: String = "viewWindow.numbers"
  +{static} SHOW_MESSAGE_INFORMATION: String = "showMessage.information"
  +{static} SHOW_MESSAGE_CONFIRMATION: String = "showMessage.confirmation"
  +{static} SHOW_MESSAGE_WARNING: String = "showMessage.warning"
  +{static} SHOW_MESSAGE_ERROR: String = "showMessage.error"
  +{static} BUTTON_MESSAGE_YES: String = "buttonMessage.yes"
  +{static} BUTTON_MESSAGE_OK: String = "buttonMessage.ok"
  +{static} BUTTON_MESSAGE_ACCEPT: String = "buttonMessage.accept"
  +{static} BUTTON_MESSAGE_NO: String = "buttonMessage.no"
  +{static} BUTTON_MESSAGE_CANCEL: String = "buttonMessage.cancel"
  +{static} BUTTON_MESSAGE_CLOSE: String = "buttonMessage.close"
  +{static} ENTRY_DIALOG_SHOW_ENTRY: String = "entryDialog.showEntry"
  +{static} ENTRY_DIALOG_GENERATE_ENTRY: String = "entryDialog.generateEntry"
  +{static} ENTRY_DIALOG_COPY_ENTRY: String = "entryDialog.copyEntry"
  +{static} ENTRY_DIALOG_FILL_TITLE_FIELD: String = "entryDialog.fillTitleField"
  +{static} ENTRY_DIALOG_TITLE_ALREADY_EXISTS: String = "entryDialog.titleAlreadyExists"
  +{static} ENTRY_DIALOG_PLEASE_SELECT_ENTRY: String = "entryDialog.pleaseSelectEntry"
  +{static} ENTRY_DIALOG_WANT_DELETE_ENTRY: String = "entryDialog.wantDeleteEntry"
  +{static} ENTRY_DIALOG_DUPLICATE_ENTRY: String = "entryDialog.duplicateEntry"
  +{static} ENTRY_DIALOG_EDIT_ENTRY: String = "entryDialog.editEntry"
  +{static} ENTRY_DIALOG_ADD_NEW_ENTRY: String = "entryDialog.addNewEntry"
  +{static} BOTTOM_MENU_ENTRIES_COUNT: String = "bottomMenu.entriesCount"
  +{static} BOTTOM_MENU_ENTRIES_FOUND: String = "bottomMenu.entriesFound"
  +{static} PANEL_PROCESSING: String = "panel.processing"
  +{static} PANEL_FIND: String = "panel.find"
  +{static} PANEL_EXPORT: String = "panel.export"
  +{static} PANEL_IMPORT: String = "panel.import"
  +{static} PANEL_SAVE: String = "panel.save"
  +{static} PANEL_OPEN: String = "panel.open"
  +{static} PANEL_SAVE_MODIFIED_QUESTION_MESSAGE: String = "panel.saveModifiedQuestionMessage"
  +{static} PANEL_UNENCRYPTED_DATA_WARNING_MESSAGE: String = "panel.unencryptedDataWarningMessage"
  --
  -Constants()
}

class CryptUtils {
  -CryptUtils()
  +{static} getPBKDF2KeyWithDefaultIterations(text: char[], salt: byte[]): byte[]
  +{static} getPBKDF2Key(text: char[], salt: byte[], iteration: int): byte[]
  +{static} getSha256HashWithDefaultIterations(text: char[]): byte[]
  +{static} getSha256Hash(text: char[]): byte[]
  -{static} getSha256Hash(text: char[], iteration: int): byte[]
  +{static} generateRandomSalt(saltLength: int): byte[]
  +{static} newRandomNumberGenerator(): Random
}

class DateUtils {
  -{static} LOG: Logger = Logger.getLogger(DateUtils.class.getName())
  --
  -DateUtils()
  +{static} createFormatter(format: String): DateTimeFormatter
  +{static} formatIsoDateTime(dateString: String, formatter: DateTimeFormatter): String
}

class SpringUtilities {
  -SpringUtilities()
  +{static} makeGrid(parent: Container, rows: int, cols: int, initialX: int, initialY: int, xPad: int, yPad: int): void
  -{static} getConstraintsForCell(row: int, col: int, parent: Container, cols: int): SpringLayout.Constraints
  +{static} makeCompactGrid(parent: Container, rows: int, cols: int, initialX: int, initialY: int, xPad: int, yPad: int): void
}

class StringUtils {
  -StringUtils()
  +{static} stripNonValidXMLCharacters(in: String): String
  +{static} stripString(text: String): String
  +{static} stripString(text: String, length: int): String
}

class Entries {
  #entry: List<Entry>
  --
  +getEntry(): List<Entry>
}

class Entry {
  #title: String
  #url: String
  #user: String
  #password: String
  #notes: String
  #lastModification: String
  #creationDate: String
  --
  +Entry()
  +getTitle(): String
  +setTitle(value: String): void
  +getUrl(): String
  +setUrl(value: String): void
  +getUser(): String
  +setUser(value: String): void
  +getPassword(): String
  +setPassword(value: String): void
  +getNotes(): String
  +setNotes(value: String): void
  +getCreationDate(): String
  +setCreationDate(date: String): void
  +getLastModification(): String
}

class XmlConverter {
  -documentClass: Class<T>
  -mapper: XmlMapper
  --
  +XmlConverter(documentClass: Class<T>)
  +write(document: T, outputStream: OutputStream): void
  +read(inputStream: InputStream): T
}

Cbc *-- Aes256
CryptInputStream *-- Cbc
CryptInputStream ..> JPassInputStream
CryptOutputStream *-- Cbc
CryptOutputStream ..> JPassOutputStream
DataModel *-- DataModel
DataModel *-- Entries
DataModel ..> Entry
EntriesRepository *-- XmlConverter
EntriesRepository o-- Entries
EntriesRepository ..> EntriesRepository
JPassInputStream ..|> JPassStream
JPassOutputStream ..|> JPassStream
Worker *-- JPassFrame
EntryDetailsTable ..> Entry
EntryDialog *-- Entry
EntryDialog ..> JPassFrame
EntryHelper ..> JPassFrame
EntryHelper ..> Entry
FileHelper ..> JPassFrame
JPassFrame *-- JPassFrame
JPassFrame *-- SearchPanel
JPassFrame *-- EntryDetailsTable
JPassFrame *-- DataModel
JPassFrame *-- StatusPanel
ClipboardUtils *-- EmptyClipboardContent
Configuration *-- Configuration
Entries o-- Entry
@enduml