' Generated by UML Generator
' Encoded: lHfjU-EsxNj-1PVkTd9ZUtVTIpVlcbQnbSGvlzLsBhqrdHz6OcmragXHKXBtTltj0qYzK2_EETSzouTO8a00104G0FLT55CH9xvt4DsvGKW5zOdjqIWourYuDqdCXZOF5kulZBmwsBWE8xOhR8yT7D2RA1RKZXKwCTFNCGiIquvT7f0F1uGSrSUDc3t6FR80-i6wJLoWtoF8fKseRJEF2HfpqIDlsHPm-1rh7NmyE51S-XwFsCYDOXOmeHWyk8737n00v0nspm8WVYK7BNnfzSWzTvs2nfBUU1KQFayYrlTS-uuvG088Z76aD3z3cmaMHPz6cyD2w9Du7Nl3xBiP3vDm5zB7cfgNeBi-zqCU09gkvmP0HT7DocqJFs0-3roxHrpWZBJSo0fGIOvXPnHxvAB40IIyuHoM66YArH7akafQxeGu18Ga2Eq11zsO-H6idOPl6fQmt8OWuGKY3m7n66TqQiijyJ9m2PremnzoFWRRQqFtsyxzzkcAYxjytLGe3Su0SWeUnl9bA3IZZe6B-CA1rHc595_WeYmXk1Y3n7JDK1ZhqMOXgah7Ytau4zm6BFI9cWVqUUZY_YAt1owSKvTvZfBLvk4stVnYXpDf6-SPJLDIC-eN8AF9OgmW5ji1YwdhHT8jbH0V82Z5hlsHd4xdOtEvjEOzCg0nMxe-E-N2ft4Cklr6Zbt6CBTh2mRFESpey-3MNITWxA2Pxfh5mm1e1ZQe4z-CGmVGkxSI_x1D3hVmrncFEuvps6gLH1XOItCuMgnEtgycvjXIbfgvb18TZVGOn365eDke2tR0g6yKiEuzzH8M6QrMr-QUn-mOv9E_N4JTc0D5mmeIlzSBOEVRv3G9fF5t8Tm6iHjlOMPLg5FpShHSfS9bFWuoVD1awYw7ov7LHQ96InUsEvuEXgT3Qv32o4UaxgJxm0Tk57fqsoFeKc-qDI9MZDiqvWxpO4_OBKsyU9aFvPPIsrWZimZcUPRZIYg6u0yowBG9w2Nn0nM1TBix2WL3vvYpm642DbQa3pqLnf5S1ckJNVJoG84KuV2YGlEg8-euS_vWC1IvfqnIWmBDFa-266S0jQhjkjJZwuhLJYv7evNLFv_sYBsXQAWlhr-zH9HRT9WP3L1v5_8NHmCUiwWs2cTlp8FQS9Zwtaap6Cp5Oz8lquWjdn42CKiq0aBTczCObByZ0cm1UDTES2AyHhfoMJh41Bz00BzJmiEmUf211xtJQm1WqCk7btozzbW1N6F41rTk8WYnfs6O2tVj1jIpx0rN-uEZFdTSs1p7qen0he4zf4DQBCn8B57NcUzLJ5_QHKDSRvDOdzKckjcrIOsVT1igmy6C2GnOwWnInsCrexXrFK-nFXNSbvHss3LeBfP3Y9XAsoeMVWJWiQuJ14xbEKEzDtBaE4zXvAjKHcEGFqltA3ESHfzPl1-VJ4kHxF1truTV_Fx57ruQhI-Fsftk7tl_UFFDyRVV_NXz_TE_LX_-y_7NmnA5cRbON4tdWzLqjXnE9-MW-870WaRSfXvaiavwV4RgC51enhkXTRMw6au6qwlLvMncpLTzSs6jHXQUFmk8duVcIHy2xzdvyEBjQ3oPphwVBvQNxwv-UF_FG_An_LmUe-bL0mzwOpliThrnVxxp_827_nPHdDm_F6v_-HmUaylnIKhurUkl_lJdl_prwx_z7GYfW2ytxuG_CiY_BlhfYmGaa47uYwr_mxr80fv2s2keb80U2zRnPaHlPEoIlyNm8dI300FyHVfKW6hH3jqNd8E9Q6USt3UkOdOSniy9J4_4dWpaP3QlHmb1eJRnUsGkVy4y-s8RnYgF0VzNmvF4ls4YTHsU9hKolZIxKn5gylJnavZgNL9s0pUkWFD3iqqm19ib_MJHIJj5zunH65dEgkefHHUbgUFAINlEl31BgBK1bLVaGG1o41Op5R4Qakf2Yc964aBTHvytYK46ynnyI36UWuxEp30_P4zDosDrFazbuXZKPMBUTFf0cHtBGQNbMcbmwdfCLtLEUpgp9YjhFfz2p3gt-czNURnLWsDhiJ3FB3s0cm5XMAqGRjk9O0xeMeBY3ICyP07-IpFqws09WvdF4jzTRs9omo3ZihaGe0d0C6JfqoClebOvylVdbhcqLgV3aRNw_j9QOFXlaWVNHY0h8RUGq3czw-15T1rS1mDEjZmX3pI8ISo9AYMaa72SicyFgsgOcvB1PotxHLGiMWfGfYwNC7rdpQ_cm-KUYt4ZGZsGrzaIzWZ9UhHhKVoUYGS1jNPbEHUuYwk1kJIb-ahdhpGRhB6ej8g865zsVyOjggZ_X_6eFXa6YrcFlgVcO03h52PMSLwb-GbxsDSB7qCkOYItvmJNtsl2hmqJXi49jU_M0Yt7GBkOm9GYYzkFVqJlsGxkRGaqewRG-bdpOI2niGFGfvvtG_48doU1hCMRIAC_FaEJ6VflK4kXvGsSU9vSs8J7fv9KqmARo6UdAoO2F_wafRU5pk3iGjBz3UTHOwi5Kd8QtPKfGxR2WWYTD1zoM6GBLnvIMlH4qYL-Cgd2qMdcSllgHQimojIiJ9W6IZL1MtcgaSVqWaibfdlLH19iX4Ky4JOaDRWd9UpHzAn7Hb20oTwBUkZAT1IVZ89BLx95q4Is5ygz2pVjn5JwOOLjpURJixavJjijrNYKfGnaJ0CGMHmspeKGke30gKz_tNtL_Rgpc9YpnVbqURYp8Hdpi0-797KXHwbbYJB-8UO9nGmrVP9bAgF2pZBKHV6IbcKCKTCPE8GPH6KeXlsFAcCRY9CDQ8hxKZr9xhRWdeSCCM_ENoIdQYkcLs-xfIMmxEb0l9Uz7DLVKy_b3ffa20fFignxKRn8jUQjnzoeWTWjzQAyyTafzhx1gALTCZGs_6rLSwD2afqsf6DLwTTcPQMmB67JRXMgDzLCMWip3qTpbUIjf1oKTupOhM3HHfBFg-8AiE27FJOZajbUgPzGdsDw9JPmuCTAWUNaMbqej2fcVHG1f6W9DsoHHiMDojrZhHydKzFSk15OjlNI5ZGKghK8aqUf5AUnE_29q5EQsXHzZcgTKzKaa2qzeDXvNK9wRorMasa5vrKJIj-SzArH1RDCRFgs6Ukh6hsd-06Lfy0rQSiox250VpHTM8CclNIYj1QPfeUVAnkfoezBgiyFL_NQ9hw2Gd5typEGg3M_qhi_7t3K1I0FirkV_3Pg1ulqwFwVSC3grvMMkhi6_isCj7i_cUUgKje8If6F5ogkaMnLMWnvZQZs9MjGDzNYwbAqkMTOofIQTVtvQlX_yMbITwgC4jyhAWAOdzsVFSMu5ePBX4hNS9zFPXYeEoWG_RSJ-pvXqVCexQks7HqaZR2D5sx2rqyJbPFNZcMxOlGjRHi_YTmc3wuJRr87sJ3i4sI2wrGwEfNin36Zj4LQOP-tvigBLYrBhr6F5MkCKzITRHNjaAmSRJBkhaukbqkeyys-BFVxq_7Od0pqxDN63nzMAibSXKXdfHgPvLfyOPdp_lbgPauWt2lIYgPEIoQnNPrMLvANfBngLzR66aQujB6JA-SrD41bfr9F51IteXQ553jAV2RUd2XxEMwbISexDt8n0xjNlqtfIOJvchfKPjLxvyzhI2f9--bAZOOQIajnrGRMz0GfrHg_952v-QnuA_HHq32ovQ8sIzzfb0MJu9A9xft75QBVhtFNU5vUfSzykgXRl3jRNKw6M7PXpVRkx39meVwD690Ds8C-eke7tGNnlN1hLVRaZYrlfbswXkDU4XwePpbCnLrpsOoG4RtjaPFA5mpwYifXu4dexh0ZBq13_9h0A5-k8OtB-QX2fYGoJ02CTASH_mgPQETuEdmk-MdZ8HIdAZRQfQW4Hd0cQBXnxQXD7bDfjzNqGyw6fHeQ-bU3FIR8Cs_VML9uLAQHXUPo5o0Qg3qoTdG-F7hRtz1WhRuSgNp1fN_ySqhnEugjikmcIANB2EQOXp1Lvsa1RGTQnK5tJob_6TDgk2v_0htnGvfFaSWkrlEbfBVipKXD2v4JGBVf9qjVTZfwVQn_vj3j7jT0wML11QHT8rGWMZEgmga2qUlA2gZUlwZErHeItx70INpllm
' URL: http://www.plantuml.com/plantuml/uml/lHfjU-EsxNj-1PVkTd9ZUtVTIpVlcbQnbSGvlzLsBhqrdHz6OcmragXHKXBtTltj0qYzK2_EETSzouTO8a00104G0FLT55CH9xvt4DsvGKW5zOdjqIWourYuDqdCXZOF5kulZBmwsBWE8xOhR8yT7D2RA1RKZXKwCTFNCGiIquvT7f0F1uGSrSUDc3t6FR80-i6wJLoWtoF8fKseRJEF2HfpqIDlsHPm-1rh7NmyE51S-XwFsCYDOXOmeHWyk8737n00v0nspm8WVYK7BNnfzSWzTvs2nfBUU1KQFayYrlTS-uuvG088Z76aD3z3cmaMHPz6cyD2w9Du7Nl3xBiP3vDm5zB7cfgNeBi-zqCU09gkvmP0HT7DocqJFs0-3roxHrpWZBJSo0fGIOvXPnHxvAB40IIyuHoM66YArH7akafQxeGu18Ga2Eq11zsO-H6idOPl6fQmt8OWuGKY3m7n66TqQiijyJ9m2PremnzoFWRRQqFtsyxzzkcAYxjytLGe3Su0SWeUnl9bA3IZZe6B-CA1rHc595_WeYmXk1Y3n7JDK1ZhqMOXgah7Ytau4zm6BFI9cWVqUUZY_YAt1owSKvTvZfBLvk4stVnYXpDf6-SPJLDIC-eN8AF9OgmW5ji1YwdhHT8jbH0V82Z5hlsHd4xdOtEvjEOzCg0nMxe-E-N2ft4Cklr6Zbt6CBTh2mRFESpey-3MNITWxA2Pxfh5mm1e1ZQe4z-CGmVGkxSI_x1D3hVmrncFEuvps6gLH1XOItCuMgnEtgycvjXIbfgvb18TZVGOn365eDke2tR0g6yKiEuzzH8M6QrMr-QUn-mOv9E_N4JTc0D5mmeIlzSBOEVRv3G9fF5t8Tm6iHjlOMPLg5FpShHSfS9bFWuoVD1awYw7ov7LHQ96InUsEvuEXgT3Qv32o4UaxgJxm0Tk57fqsoFeKc-qDI9MZDiqvWxpO4_OBKsyU9aFvPPIsrWZimZcUPRZIYg6u0yowBG9w2Nn0nM1TBix2WL3vvYpm642DbQa3pqLnf5S1ckJNVJoG84KuV2YGlEg8-euS_vWC1IvfqnIWmBDFa-266S0jQhjkjJZwuhLJYv7evNLFv_sYBsXQAWlhr-zH9HRT9WP3L1v5_8NHmCUiwWs2cTlp8FQS9Zwtaap6Cp5Oz8lquWjdn42CKiq0aBTczCObByZ0cm1UDTES2AyHhfoMJh41Bz00BzJmiEmUf211xtJQm1WqCk7btozzbW1N6F41rTk8WYnfs6O2tVj1jIpx0rN-uEZFdTSs1p7qen0he4zf4DQBCn8B57NcUzLJ5_QHKDSRvDOdzKckjcrIOsVT1igmy6C2GnOwWnInsCrexXrFK-nFXNSbvHss3LeBfP3Y9XAsoeMVWJWiQuJ14xbEKEzDtBaE4zXvAjKHcEGFqltA3ESHfzPl1-VJ4kHxF1truTV_Fx57ruQhI-Fsftk7tl_UFFDyRVV_NXz_TE_LX_-y_7NmnA5cRbON4tdWzLqjXnE9-MW-870WaRSfXvaiavwV4RgC51enhkXTRMw6au6qwlLvMncpLTzSs6jHXQUFmk8duVcIHy2xzdvyEBjQ3oPphwVBvQNxwv-UF_FG_An_LmUe-bL0mzwOpliThrnVxxp_827_nPHdDm_F6v_-HmUaylnIKhurUkl_lJdl_prwx_z7GYfW2ytxuG_CiY_BlhfYmGaa47uYwr_mxr80fv2s2keb80U2zRnPaHlPEoIlyNm8dI300FyHVfKW6hH3jqNd8E9Q6USt3UkOdOSniy9J4_4dWpaP3QlHmb1eJRnUsGkVy4y-s8RnYgF0VzNmvF4ls4YTHsU9hKolZIxKn5gylJnavZgNL9s0pUkWFD3iqqm19ib_MJHIJj5zunH65dEgkefHHUbgUFAINlEl31BgBK1bLVaGG1o41Op5R4Qakf2Yc964aBTHvytYK46ynnyI36UWuxEp30_P4zDosDrFazbuXZKPMBUTFf0cHtBGQNbMcbmwdfCLtLEUpgp9YjhFfz2p3gt-czNURnLWsDhiJ3FB3s0cm5XMAqGRjk9O0xeMeBY3ICyP07-IpFqws09WvdF4jzTRs9omo3ZihaGe0d0C6JfqoClebOvylVdbhcqLgV3aRNw_j9QOFXlaWVNHY0h8RUGq3czw-15T1rS1mDEjZmX3pI8ISo9AYMaa72SicyFgsgOcvB1PotxHLGiMWfGfYwNC7rdpQ_cm-KUYt4ZGZsGrzaIzWZ9UhHhKVoUYGS1jNPbEHUuYwk1kJIb-ahdhpGRhB6ej8g865zsVyOjggZ_X_6eFXa6YrcFlgVcO03h52PMSLwb-GbxsDSB7qCkOYItvmJNtsl2hmqJXi49jU_M0Yt7GBkOm9GYYzkFVqJlsGxkRGaqewRG-bdpOI2niGFGfvvtG_48doU1hCMRIAC_FaEJ6VflK4kXvGsSU9vSs8J7fv9KqmARo6UdAoO2F_wafRU5pk3iGjBz3UTHOwi5Kd8QtPKfGxR2WWYTD1zoM6GBLnvIMlH4qYL-Cgd2qMdcSllgHQimojIiJ9W6IZL1MtcgaSVqWaibfdlLH19iX4Ky4JOaDRWd9UpHzAn7Hb20oTwBUkZAT1IVZ89BLx95q4Is5ygz2pVjn5JwOOLjpURJixavJjijrNYKfGnaJ0CGMHmspeKGke30gKz_tNtL_Rgpc9YpnVbqURYp8Hdpi0-797KXHwbbYJB-8UO9nGmrVP9bAgF2pZBKHV6IbcKCKTCPE8GPH6KeXlsFAcCRY9CDQ8hxKZr9xhRWdeSCCM_ENoIdQYkcLs-xfIMmxEb0l9Uz7DLVKy_b3ffa20fFignxKRn8jUQjnzoeWTWjzQAyyTafzhx1gALTCZGs_6rLSwD2afqsf6DLwTTcPQMmB67JRXMgDzLCMWip3qTpbUIjf1oKTupOhM3HHfBFg-8AiE27FJOZajbUgPzGdsDw9JPmuCTAWUNaMbqej2fcVHG1f6W9DsoHHiMDojrZhHydKzFSk15OjlNI5ZGKghK8aqUf5AUnE_29q5EQsXHzZcgTKzKaa2qzeDXvNK9wRorMasa5vrKJIj-SzArH1RDCRFgs6Ukh6hsd-06Lfy0rQSiox250VpHTM8CclNIYj1QPfeUVAnkfoezBgiyFL_NQ9hw2Gd5typEGg3M_qhi_7t3K1I0FirkV_3Pg1ulqwFwVSC3grvMMkhi6_isCj7i_cUUgKje8If6F5ogkaMnLMWnvZQZs9MjGDzNYwbAqkMTOofIQTVtvQlX_yMbITwgC4jyhAWAOdzsVFSMu5ePBX4hNS9zFPXYeEoWG_RSJ-pvXqVCexQks7HqaZR2D5sx2rqyJbPFNZcMxOlGjRHi_YTmc3wuJRr87sJ3i4sI2wrGwEfNin36Zj4LQOP-tvigBLYrBhr6F5MkCKzITRHNjaAmSRJBkhaukbqkeyys-BFVxq_7Od0pqxDN63nzMAibSXKXdfHgPvLfyOPdp_lbgPauWt2lIYgPEIoQnNPrMLvANfBngLzR66aQujB6JA-SrD41bfr9F51IteXQ553jAV2RUd2XxEMwbISexDt8n0xjNlqtfIOJvchfKPjLxvyzhI2f9--bAZOOQIajnrGRMz0GfrHg_952v-QnuA_HHq32ovQ8sIzzfb0MJu9A9xft75QBVhtFNU5vUfSzykgXRl3jRNKw6M7PXpVRkx39meVwD690Ds8C-eke7tGNnlN1hLVRaZYrlfbswXkDU4XwePpbCnLrpsOoG4RtjaPFA5mpwYifXu4dexh0ZBq13_9h0A5-k8OtB-QX2fYGoJ02CTASH_mgPQETuEdmk-MdZ8HIdAZRQfQW4Hd0cQBXnxQXD7bDfjzNqGyw6fHeQ-bU3FIR8Cs_VML9uLAQHXUPo5o0Qg3qoTdG-F7hRtz1WhRuSgNp1fN_ySqhnEugjikmcIANB2EQOXp1Lvsa1RGTQnK5tJob_6TDgk2v_0htnGvfFaSWkrlEbfBVipKXD2v4JGBVf9qjVTZfwVQn_vj3j7jT0wML11QHT8rGWMZEgmga2qUlA2gZUlwZErHeItx70INpllm
' Generated on: 2026-03-12T09:32:28.521413400

@startuml
skinparam classAttributeIconSize 0
hide circle

abstract class AbstractMenuAction {
  +AbstractMenuAction(text: String, icon: Icon, accelerator: KeyStroke)
}

class CloseListener {
  +windowClosing(event: WindowEvent): void
}

class TableListener {
  +mouseClicked(evt: MouseEvent): void
  +mousePressed(evt: MouseEvent): void
  +mouseReleased(evt: MouseEvent): void
  -checkPopup(evt: MouseEvent): void
}

abstract class TextComponentAction {
  +TextComponentAction(text: String, accelerator: KeyStroke, mnemonic: int)
  +isEnabled(component: JTextComponent): boolean
}

class TextComponentPopupListener {
  -popup: JPopupMenu
  -items: Map<TextComponentActionType, JMenuItem>
  --
  +TextComponentPopupListener()
  -showPopupMenu(e: MouseEvent): void
  +mousePressed(e: MouseEvent): void
  +mouseReleased(e: MouseEvent): void
}

abstract class Worker {
  -parent: JPassFrame
  --
  +Worker(parent: JPassFrame)
  #done(): void
  #showErrorMessage(e: Exception): void
  #stopProcessing(): void
}

class CopiablePasswordField {
  -copyEnabled: boolean
  --
  +CopiablePasswordField(copyEnabled: boolean)
  +isCopyEnabled(): boolean
}

class EntryDetailsTable {
  -{static} FORMATTER: DateTimeFormatter = DateUtils.createFormatter(Configuration.getInstance().get("date.format", "yyyy-MM-dd"))
  -{static} DETAILS_BY_NAME: Map<String, DetailType> = Arrays.stream(DetailType.values()).collect(Collectors.toMap(Enum::name, Function.identity()))
  -{static} DEFAULT_DETAILS: String = { DetailType.TITLE.name(), DetailType.MODIFIED.name() }
  -detailsToDisplay: List<DetailType>
  -tableModel: DefaultTableModel
  --
  +EntryDetailsTable()
  +isCellEditable(row: int, column: int): boolean
  +prepareRenderer(renderer: TableCellRenderer, row: int, column: int): Component
  +clear(): void
  +addRow(entry: Entry): void
  +rowCount(): int
}

class EntryDialog {
  -{static} NULL_ECHO: char = '\0'
  -fieldPanel: JPanel
  -notesPanel: JPanel
  -buttonPanel: JPanel
  -passwordButtonPanel: JPanel
  -titleField: JTextField
  -userField: JTextField
  -passwordField: JPasswordField
  -repeatField: JPasswordField
  -urlField: JTextField
  -notesField: JTextArea
  -okButton: JButton
  -cancelButton: JButton
  -showButton: JToggleButton
  -generateButton: JButton
  -copyButton: JButton
  -originalEcho: char
  -modifiedEntry: Entry
  -newEntry: boolean
  -originalTitle: String
  --
  +EntryDialog(parent: JPassFrame, title: String, entry: Entry, newEntry: boolean)
  +actionPerformed(e: ActionEvent): void
  -fillDialogFromEntry(entry: Entry): void
  -getEntryFromDialog(): Entry
  +getModifiedEntry(): Optional<Entry>
  -checkEntryTitle(): boolean
}

class GeneratePasswordDialog {
  -{static} SYMBOLS: String = "!\"#$%&'()*+,-./:;<=>?@[\\]^_{|}~"
  -{static} PASSWORD_OPTIONS: String = { { getLocalizedMessages().getString(VIEW_WINDOW_UPPER_CASE_LETTERS), "ABCDEFGHIJKLMNOPQRSTUVWXYZ" }, { getLocalizedMessages().getString(VIEW_WINDOW_LOWER_CASE_LETTERS), "abcdefghijklmnopqrstuvwxyz" }, { getLocalizedMessages().getString(VIEW_WINDOW_NUMBERS), "0123456789" } }
  -checkBoxes: JCheckBox
  -customSymbolsCheck: JCheckBox
  -customSymbolsField: JTextField
  -passwordField: JTextField
  -lengthLabel: JLabel
  -lengthSpinner: JSpinner
  -lengthPanel: JPanel
  -charactersPanel: JPanel
  -passwordPanel: JPanel
  -buttonPanel: JPanel
  -acceptButton: JButton
  -cancelButton: JButton
  -generateButton: JButton
  -generatedPassword: String
  -random: Random = CryptUtils.newRandomNumberGenerator()
  --
  +GeneratePasswordDialog(parent: JFrame)
  +GeneratePasswordDialog(parent: JDialog)
  -initDialog(parent: Component, showAcceptButton: boolean): void
  +actionPerformed(e: ActionEvent): void
  +getGeneratedPassword(): Optional<String>
}

class EntryHelper {
  -EntryHelper()
  +{static} deleteEntry(parent: JPassFrame): void
  +{static} duplicateEntry(parent: JPassFrame): void
  +{static} editEntry(parent: JPassFrame): void
  +{static} addEntry(parent: JPassFrame): void
  +{static} getSelectedEntry(parent: JPassFrame): Entry
  +{static} copyEntryField(parent: JPassFrame, content: String): void
}

class FileHelper {
  -{static} OPEN_ERROR_CHECK_PASSWORD_ERROR_MESSAGE: String = "An error occured during the open operation.\nThe password might be incorrect.\n(Error: %s)"
  -{static} CREATE_FILE_QUESTION_MESSAGE: String = "File not found:\n%s\n\nDo you want to create the file?"
  -{static} OPERATION_ERROR_MESSAGE: String = "An error occured during the %s operation:\n%s"
  -{static} FILE_OVERWRITE_QUESTION_MESSAGE: String = "File is already exists:\n%s\n\nDo you want to overwrite?"
  -{static} JPASS_DATA_FILES: String = "JPass Data Files (*.jpass)"
  -{static} XML_FILES: String = "XML Files (*.xml)"
  --
  -FileHelper()
  +{static} createNew(parent: JPassFrame): void
  +{static} exportFile(parent: JPassFrame): void
  +{static} importFile(parent: JPassFrame): void
  ~{static} importFileInBackground(fileName: String, parent: JPassFrame): void
  +{static} saveFile(parent: JPassFrame, saveAs: boolean): void
  +{static} saveFile(parent: JPassFrame, saveAs: boolean, successCallback: Runnable): void
  +{static} openFile(parent: JPassFrame): void
  +{static} openFileInBackground(fileName: String, parent: JPassFrame): void
  ~{static} handleFileNotFound(parent: JPassFrame, fileName: String, password: char[]): void
  -{static} showFileChooser(parent: JPassFrame, taskName: String, extension: String, description: String): File
  -{static} checkFileOverwrite(fileName: String, parent: JPassFrame): boolean
  -{static} checkExtension(fileName: String, extension: String): String
}

class JPassFrame {
  -{static} localizedMessages: ResourceBundle
  -{static} LOG: Logger = Logger.getLogger(JPassFrame.class.getName())
  -{static} instance: JPassFrame
  +{static} PROGRAM_NAME: String = "JPass Password Manager"
  +{static} PROGRAM_VERSION: String = "1.0.7-SNAPSHOT"
  -popup: JPopupMenu
  -topContainerPanel: JPanel
  -jpassMenuBar: JMenuBar
  -searchPanel: SearchPanel
  -fileMenu: JMenu
  -editMenu: JMenu
  -toolsMenu: JMenu
  -helpMenu: JMenu
  -toolBar: JToolBar
  -scrollPane: JScrollPane
  -entryDetailsTable: EntryDetailsTable
  -model: DataModel = DataModel.getInstance()
  -statusPanel: StatusPanel
  -processing: boolean = false
  --
  -JPassFrame(fileName: String, locale: Locale)
  +{static} getInstance(): JPassFrame
  +{static} getInstance(fileName: String): JPassFrame
  +getEntryTitleTable(): JTable
  +getModel(): DataModel
  +clearModel(): void
  +refreshFrameTitle(): void
  +refreshEntryTitleList(selectTitle: String): void
  +refreshAll(): void
  +exitFrame(): void
  +getPopup(): JPopupMenu
  +setProcessing(processing: boolean): void
  +isProcessing(): boolean
  +getSearchPanel(): SearchPanel
  +{static} getLocalizedMessages(): ResourceBundle
}

class MessageDialog {
  -{static} LOG: Logger = Logger.getLogger(MessageDialog.class.getName())
  +{static} DEFAULT_OPTION: int = -1
  +{static} YES_NO_OPTION: int = 0
  +{static} YES_NO_CANCEL_OPTION: int = 1
  +{static} OK_CANCEL_OPTION: int = 2
  +{static} YES_OPTION: int = 0
  +{static} OK_OPTION: int = 0
  +{static} NO_OPTION: int = 1
  +{static} CANCEL_OPTION: int = 2
  +{static} CLOSED_OPTION: int = -1
  -selectedOption: int
  --
  -MessageDialog(parent: Dialog, message: Object, title: String, icon: ImageIcon, optionType: int)
  -MessageDialog(parent: Frame, message: Object, title: String, icon: ImageIcon, optionType: int)
  -initializeDialog(parent: Component, message: Object, title: String, icon: ImageIcon, optionType: int): void
  -createButton(name: String, option: int, icon: ImageIcon): JButton
  -getSelectedOption(): int
  +actionPerformed(event: ActionEvent): void
  -{static} showMessageDialog(parent: Component, message: Object, title: String, icon: ImageIcon): void
  -{static} showMessageDialog(parent: Component, message: Object, title: String, icon: ImageIcon, optionType: int): int
  +{static} showWarningMessage(parent: Component, message: String): void
  +{static} showErrorMessage(parent: Component, message: String): void
  +{static} showInformationMessage(parent: Component, message: String): void
  +{static} showQuestionMessage(parent: Component, message: String, optionType: int): int
  +{static} showPasswordDialog(parent: Component, confirm: boolean): char[]
  +{static} getIcon(name: String): ImageIcon
  +{static} getIcon(name: String, width: int, height: int): ImageIcon
  -{static} getResourceAsString(name: String): String
  +{static} showTextFile(parent: Component, title: String, textFile: String): void
}

class SearchPanel {
  -{static} CLOSE_BUTTON_ACTION_COMMAND: String = "close_search_panel_button"
  -{static} SEARCH_PANEL_CLOSE_ACTION: String = "jpass.search_panel.close"
  -label: JLabel
  -criteriaField: JTextField
  -closeButton: JButton
  --
  +SearchPanel(searchCallback: Consumer<Boolean>)
  +setVisible(visible: boolean): void
  +setEnabled(enabled: boolean): void
  +actionPerformed(e: ActionEvent): void
  +getSearchCriteria(): String
}

class StatusPanel {
  -label: JLabel
  -progressBar: JProgressBar
  --
  +StatusPanel()
  +setText(text: String): void
  +getText(): String
  +setProcessing(processing: boolean): void
}

class SvgImageIcon {
  -{static} LOG: Logger = Logger.getLogger(SvgImageIcon.class.getName())
  -{static} SVG_UNIVERSE: SVGUniverse = new SVGUniverse()
  -name: String
  -width: int
  -height: int
  -diagram: SVGDiagram
  -dark: boolean
  -{static} darkLaf: Boolean
  --
  +SvgImageIcon(name: String)
  +SvgImageIcon(name: String, width: int, height: int)
  -update(): void
  -getIconURL(name: String, dark: boolean): URL
  +getIconWidth(): int
  +getIconHeight(): int
  +paintIcon(c: Component, g: Graphics, x: int, y: int): void
  -paintSvg(g: Graphics2D, x: int, y: int): void
  -paintSvgError(g: Graphics2D, x: int, y: int): void
  +getImage(): Image
  -{static} isDarkLaf(): boolean
  -{static} lafChanged(): void
}

class TextComponentFactory {
  -TextComponentFactory()
  +{static} newTextField(): JTextField
  +{static} newTextField(text: String): JTextField
  +{static} newPasswordField(): JPasswordField
  +{static} newPasswordField(copyEnabled: boolean): JPasswordField
  +{static} newTextArea(): JTextArea
  +{static} newTextArea(text: String): JTextArea
}

Worker *-- JPassFrame
EntryDialog ..> JPassFrame
EntryHelper ..> JPassFrame
FileHelper ..> JPassFrame
JPassFrame *-- JPassFrame
JPassFrame *-- SearchPanel
JPassFrame *-- EntryDetailsTable
JPassFrame *-- StatusPanel
@enduml