' Generated by UML Generator
' Encoded: lLbHZwCu4dxlNu7sANtR7PrMkdjetPsM4AUR7G8iaCcqHYFaW9FuXc3McCdaLllVjmo10C4aseTxGGRg-rmkbrtbyi-vm5mKX-GX_qhJ37DyqA84vxak1AURGX0pOgbF_qUqlp_iQKoqYF8e8GyFfPHc93JRCCpZbQ19hlt-e6dFlmEdeD4V6bgwmNjeE7Q0xE15GuTCd1g0mL91Kg7zMql9SVZVv57IFSj7jv_onuzDFpaHLz1Sy1VDXp6akySNxHkZSGS2Gy3ykhy1oTq0-MDD_V17ROZXmKbx_0WC0STflYLyZWLU9FWRuxaakRn-_Y8bQNxvuXTPnhWWyMHRlhUb0RfX38QG3l0FopkR_v98IF64vS8vfeJdUvfDebhbbyjSFcbHfN_-ejNCU9EGsZpDe66OMxehE5YAfRt9jvpN5yrYkntXCCTLOmggLgr91pejwUHV6n_8vF6nmqHJQAKHUUds9sKopZB21IMWgTkqppvr-T1sf3P5zLtESFlhWYKnuIuMUpb72mhUNabzn4b19b_9gPx-9oqcMrmarHymrfCcJfbKL8xdNy5_01-SmMTjJctynO_AoH-ZdbNp_TYqpZDlmaH9Uuv0poAFJUiC7SCCw0S8dNDykWtx_ENnqkml9lCyczAstVbikvMK4TL-Sa4lJ0k5IsIlQdQOw1yE92rcc4-tC4zBQF_GWQ2v6IWX9ARY6X8uZkKhCGAidr-3tf3bAZ5xacJNa6OqeOtMRLWzaYauiGhYkCWEvUiW43mjbNwhGllwns5WZh-DWaBTL-BqN8L4drp72yB02JyjhK4y-Ixtke31VnM9kIn95fwpLDBGWwHPS7OO8JBUTFiLXQxk-sl7cmyIHNkSxeWBpdXaF5QFommKmnbohBh74A8XyXe5GW_zka9-Xoaxzpo5JLXkHTMRHtuhI2uKhA_8HfuUeFk8TmGY01RaFkwcOJkmd9ovkJ3HV92tRjXCB5bCjvJ42av_PHZ8znShoteVvyoBA29vlYsIv7I3j6xufQRc74nj6hergceEkfenM9f6EBdNk7SPzPOrBMI_1c-ZobaatOdz3QtczwaLtz3BqEtIRFSDDi8f6EvrTCZDzXlgyzBllVSsLxq1Jt4SerJmamfTjjHmsHZ5prUk1Nu0GrAJn4MMW0S8Ciw4B3HEGn9oWyDmtFTmvLc3-8Xb9_WtZlMHP-jBf2R82PUfr2ZBqEnsM6xDgM4XtOEdwSuSNSNJIRHLJ0lJ7dEFBKs7_ECIgSTTjedPDnPe4yH3S1Pa-ntxra5y2av2qfoeeFhCMGNXBrAFGJZUi4By8bTHb-6ZYTRX6kpWhCF03BgH_HibnpKOWHsdWef-O6z3UsxL0XOy6O61Hwbmu4lZmB3lYptqjIUs6OQs_XR1ON33RnCO7f9xe08VSIAtFZLyo6DQ-6pGLTe47d910GMSampwLuDXlqM-0fioGKQyn4T1ODglAZISYWLy7I4mLdu0sPJ_lfp1GbBPhyW5E_YdmmOMqOWVk2uuWg7x2A9Q0FcDYW-EjOGRE2SMw0U7K3MbvQpleqpOyKvAUxMSgNdIuh2vWljlqaSXKT4XQJJjXUCjzS1qx3P7lcV79MGeU4UcDDqoVYXFD2D4XcClp1jCaJmTtQPQwvuDRg1YEMAUmkSH0kHvZgU24yvPR_dFLa7Ws0tylUk_cq88bjRmKz-1Us3dWnhBlev2TKWVtK0Dnv0qPcAKmdRKy9IDGY5NCf2bXaVoZ9kCKrXEDyJq61BMZp9bX0pdfcuvhs4vXzSnKuR9ESK9sqtbF0ub8csM9d2ECjLnynPRcLUCCicyuXOBdB2iAWP24rbp5HUSjv90XiC59KayGbXnwHO4YlcxFBRvWQyYBUEhda3KY4_eEyr5FaBiGWO4svCFIQ4HZ0yyWqGe9pvaXv6uPO2rRWVgJBD5UiIfc2iJpZRbM0RS8XnDWjjyYeoyHQLAojiiybHWenjk38S3cmmvyim9PFogJWZ0O28VF71bTpS51elgK1qJW8AIt615AcupBO1fFiwq0AQhmvIDhD3r77csxMtB6Kv9CiquawVPgpsvGifC-1eZ4-0XwQgoSYrVrLE645KPvHfHbKw64FrYKIL_NIcgf6LXwbfQ5gHKt4q269RL2lEoGmxtMbS0VfNr2jhibqFqAnlPXlVkoXFoN0_qEbQgEoXIaaRyb476ACldwofujhfegiXLXNBos2fRIbph7kJothklaDNWsOVvugSFvBIcOZ-lQgYc85KbD9y8ybsyQD4UyyzVdhGS9_2sEGbILbQhXf9n1FoaqRgF5uscGadcx_5F__Zd6yxtj_MxWqGf_to7_BrALn7Amv3A7NmOz4IEl2gVZE1ISgmWTfdydSiPZCloTFNZCi7W4MJedkl6LKS36xpcAFsf4UbvIdLuMPG99HXXKgMMhVAy10RqS17fm2jnCsUrs2I6HWM-bF2tDNQ0Rk2coy_akzIMbfSjfIrw7tl3EE2lv9NJU99X3bjdMVWNc8AfdpJEZdavF_BMAQcRD0KUd7pglhwVNx-xE3utJtNpSdVNSQfofNBeIy1kpGsI91FeyTBXkJMWMAEDj44vF0kVuEm-RL5UZT9WXmn7ulyrsCkaYDh-zOHSFlHlI-5FPhFq8qve_6bf6R3AG6Ku-4neEdZpquLMtyzBzAz8Fsb9PrLU7Antc_otv-VXUzM7xiMZbEjU9VrCqhWu97y2
' URL: http://www.plantuml.com/plantuml/uml/lLbHZwCu4dxlNu7sANtR7PrMkdjetPsM4AUR7G8iaCcqHYFaW9FuXc3McCdaLllVjmo10C4aseTxGGRg-rmkbrtbyi-vm5mKX-GX_qhJ37DyqA84vxak1AURGX0pOgbF_qUqlp_iQKoqYF8e8GyFfPHc93JRCCpZbQ19hlt-e6dFlmEdeD4V6bgwmNjeE7Q0xE15GuTCd1g0mL91Kg7zMql9SVZVv57IFSj7jv_onuzDFpaHLz1Sy1VDXp6akySNxHkZSGS2Gy3ykhy1oTq0-MDD_V17ROZXmKbx_0WC0STflYLyZWLU9FWRuxaakRn-_Y8bQNxvuXTPnhWWyMHRlhUb0RfX38QG3l0FopkR_v98IF64vS8vfeJdUvfDebhbbyjSFcbHfN_-ejNCU9EGsZpDe66OMxehE5YAfRt9jvpN5yrYkntXCCTLOmggLgr91pejwUHV6n_8vF6nmqHJQAKHUUds9sKopZB21IMWgTkqppvr-T1sf3P5zLtESFlhWYKnuIuMUpb72mhUNabzn4b19b_9gPx-9oqcMrmarHymrfCcJfbKL8xdNy5_01-SmMTjJctynO_AoH-ZdbNp_TYqpZDlmaH9Uuv0poAFJUiC7SCCw0S8dNDykWtx_ENnqkml9lCyczAstVbikvMK4TL-Sa4lJ0k5IsIlQdQOw1yE92rcc4-tC4zBQF_GWQ2v6IWX9ARY6X8uZkKhCGAidr-3tf3bAZ5xacJNa6OqeOtMRLWzaYauiGhYkCWEvUiW43mjbNwhGllwns5WZh-DWaBTL-BqN8L4drp72yB02JyjhK4y-Ixtke31VnM9kIn95fwpLDBGWwHPS7OO8JBUTFiLXQxk-sl7cmyIHNkSxeWBpdXaF5QFommKmnbohBh74A8XyXe5GW_zka9-Xoaxzpo5JLXkHTMRHtuhI2uKhA_8HfuUeFk8TmGY01RaFkwcOJkmd9ovkJ3HV92tRjXCB5bCjvJ42av_PHZ8znShoteVvyoBA29vlYsIv7I3j6xufQRc74nj6hergceEkfenM9f6EBdNk7SPzPOrBMI_1c-ZobaatOdz3QtczwaLtz3BqEtIRFSDDi8f6EvrTCZDzXlgyzBllVSsLxq1Jt4SerJmamfTjjHmsHZ5prUk1Nu0GrAJn4MMW0S8Ciw4B3HEGn9oWyDmtFTmvLc3-8Xb9_WtZlMHP-jBf2R82PUfr2ZBqEnsM6xDgM4XtOEdwSuSNSNJIRHLJ0lJ7dEFBKs7_ECIgSTTjedPDnPe4yH3S1Pa-ntxra5y2av2qfoeeFhCMGNXBrAFGJZUi4By8bTHb-6ZYTRX6kpWhCF03BgH_HibnpKOWHsdWef-O6z3UsxL0XOy6O61Hwbmu4lZmB3lYptqjIUs6OQs_XR1ON33RnCO7f9xe08VSIAtFZLyo6DQ-6pGLTe47d910GMSampwLuDXlqM-0fioGKQyn4T1ODglAZISYWLy7I4mLdu0sPJ_lfp1GbBPhyW5E_YdmmOMqOWVk2uuWg7x2A9Q0FcDYW-EjOGRE2SMw0U7K3MbvQpleqpOyKvAUxMSgNdIuh2vWljlqaSXKT4XQJJjXUCjzS1qx3P7lcV79MGeU4UcDDqoVYXFD2D4XcClp1jCaJmTtQPQwvuDRg1YEMAUmkSH0kHvZgU24yvPR_dFLa7Ws0tylUk_cq88bjRmKz-1Us3dWnhBlev2TKWVtK0Dnv0qPcAKmdRKy9IDGY5NCf2bXaVoZ9kCKrXEDyJq61BMZp9bX0pdfcuvhs4vXzSnKuR9ESK9sqtbF0ub8csM9d2ECjLnynPRcLUCCicyuXOBdB2iAWP24rbp5HUSjv90XiC59KayGbXnwHO4YlcxFBRvWQyYBUEhda3KY4_eEyr5FaBiGWO4svCFIQ4HZ0yyWqGe9pvaXv6uPO2rRWVgJBD5UiIfc2iJpZRbM0RS8XnDWjjyYeoyHQLAojiiybHWenjk38S3cmmvyim9PFogJWZ0O28VF71bTpS51elgK1qJW8AIt615AcupBO1fFiwq0AQhmvIDhD3r77csxMtB6Kv9CiquawVPgpsvGifC-1eZ4-0XwQgoSYrVrLE645KPvHfHbKw64FrYKIL_NIcgf6LXwbfQ5gHKt4q269RL2lEoGmxtMbS0VfNr2jhibqFqAnlPXlVkoXFoN0_qEbQgEoXIaaRyb476ACldwofujhfegiXLXNBos2fRIbph7kJothklaDNWsOVvugSFvBIcOZ-lQgYc85KbD9y8ybsyQD4UyyzVdhGS9_2sEGbILbQhXf9n1FoaqRgF5uscGadcx_5F__Zd6yxtj_MxWqGf_to7_BrALn7Amv3A7NmOz4IEl2gVZE1ISgmWTfdydSiPZCloTFNZCi7W4MJedkl6LKS36xpcAFsf4UbvIdLuMPG99HXXKgMMhVAy10RqS17fm2jnCsUrs2I6HWM-bF2tDNQ0Rk2coy_akzIMbfSjfIrw7tl3EE2lv9NJU99X3bjdMVWNc8AfdpJEZdavF_BMAQcRD0KUd7pglhwVNx-xE3utJtNpSdVNSQfofNBeIy1kpGsI91FeyTBXkJMWMAEDj44vF0kVuEm-RL5UZT9WXmn7ulyrsCkaYDh-zOHSFlHlI-5FPhFq8qve_6bf6R3AG6Ku-4neEdZpquLMtyzBzAz8Fsb9PrLU7Antc_otv-VXUzM7xiMZbEjU9VrCqhWu97y2
' Generated on: 2026-03-12T09:26:10.421086800

@startuml
skinparam classAttributeIconSize 0
hide circle

class ClipboardUtils {
  -{static} EMPTY_CONTENT: EmptyClipboardContent = new EmptyClipboardContent()
  --
  -ClipboardUtils()
  +{static} setClipboardContent(str: String): void
  +{static} clearClipboardContent(): void
  +{static} getClipboardContent(): String
}

class EmptyClipboardContent {
  +getTransferDataFlavors(): DataFlavor[]
  +isDataFlavorSupported(flavor: DataFlavor): boolean
  +getTransferData(flavor: DataFlavor): Object
  +lostOwnership(clipboard: Clipboard, contents: Transferable): void
}

class Configuration {
  -{static} LOG: Logger = Logger.getLogger(Configuration.class.getName())
  -{static} instance: Configuration
  -properties: Properties = new Properties()
  --
  -Configuration()
  -getConfigurationFolderPath(): File
  -getValue(key: String, defaultValue: T, type: Class<T>): T
  -getProperty(key: String): String
  +is(key: String, defaultValue: Boolean): Boolean
  +getInteger(key: String, defaultValue: Integer): Integer
  +get(key: String, defaultValue: String): String
  +getArray(key: String, defaultValue: String[]): String[]
  +{static} getInstance(): Configuration
}

class Constants {
  +{static} FILE_MENU: String = "menuBar.fileMenu"
  +{static} EDIT_MENU: String = "menuBar.editMenu"
  +{static} TOOLS_MENU: String = "menuBar.toolsMenu"
  +{static} HELP_MENU: String = "menuBar.helpMenu"
  +{static} FILE_MENU_NEW: String = "fileMenu.new"
  +{static} FILE_MENU_OPEN_FILE: String = "fileMenu.openFile"
  +{static} FILE_MENU_SAVE: String = "fileMenu.save"
  +{static} FILE_MENU_SAVE_AS: String = "fileMenu.saveAs"
  +{static} FILE_MENU_EXPORT_TO_XML: String = "fileMenu.exportToXML"
  +{static} FILE_MENU_IMPORT_FROM_XML: String = "fileMenu.importFromXML"
  +{static} FILE_MENU_CHANGE_PASSWORD: String = "fileMenu.changePassword"
  +{static} FILE_MENU_EXIT: String = "fileMenu.exitMenu"
  +{static} PASSWORD_ENTER_PASSWORD_REQUEST: String = "password.enterPasswordRequest"
  +{static} PASSWORD_GENERATE_PASSWORD_REQUEST: String = "password.generatePasswordRequest"
  +{static} PASSWORD_PASSWORD_NOT_MODIFIED: String = "password.passwordNotModified"
  +{static} PASSWORD_SUCCESSFULLY_MODIFIED: String = "password.successfullyModified"
  +{static} PASSWORD_PASSWORDS_NOT_IDENTICAL: String = "password.passwordsNotIdentical"
  +{static} PASSWORD_GENERATE_PASSWORD: String = "password.generatePassword"
  +{static} PASSWORD_PASSWORD_LENGTH: String = "password.passwordLength"
  +{static} PASSWORD_GENERATED_PASSWORD: String = "password.generatedPassword"
  +{static} PASSWORD_CAN_NOT_GENERATE_PASSWORD: String = "password.canNotGeneratePassword"
  +{static} EDIT_MENU_ADD_ENTRY: String = "editMenu.addEntry"
  +{static} EDIT_MENU_EDIT_ENTRY: String = "editMenu.editEntry"
  +{static} EDIT_MENU_DUPLICATE_ENTRY: String = "editMenu.duplicateEntry"
  +{static} EDIT_MENU_DELETE_ENTRY: String = "editMenu.deleteEntry"
  +{static} EDIT_MENU_COPY_URL: String = "editMenu.copyURL"
  +{static} EDIT_MENU_COPY_USERNAME: String = "editMenu.copyUserName"
  +{static} EDIT_MENU_COPY_PASSWORD: String = "editMenu.copyPassword"
  +{static} EDIT_MENU_CLEAR_CLIPBOARD: String = "editMenu.clearClipboard"
  +{static} EDIT_MENU_FIND_ENTRY: String = "editMenu.findEntry"
  +{static} TOOLS_MENU_GENERATE_PASSWORD: String = "toolsMenu.generatePassword"
  +{static} HELP_MENU_LICENSE: String = "helpMenu.license"
  +{static} HELP_MENU_ABOUT_JPASS: String = "helpMenu.aboutJpass"
  +{static} VIEW_WINDOW_TITLE: String = "viewWindow.title"
  +{static} VIEW_WINDOW_URL: String = "viewWindow.url"
  +{static} VIEW_WINDOW_USER: String = "viewWindow.user"
  +{static} VIEW_WINDOW_USER_NAME: String = "viewWindow.userName"
  +{static} VIEW_WINDOW_MODIFIED: String = "viewWindow.modified"
  +{static} VIEW_WINDOW_CREATED: String = "viewWindow.created"
  +{static} VIEW_WINDOW_PASSWORD: String = "viewWindow.password"
  +{static} VIEW_WINDOW_REPEAT: String = "viewWindow.repeat"
  +{static} VIEW_WINDOW_NOTES: String = "viewWindow.notes"
  +{static} VIEW_WINDOW_SETTINGS: String = "viewWindow.settings"
  +{static} VIEW_WINDOW_CUSTOM_SYMBOLS: String = "viewWindow.customSymbols"
  +{static} VIEW_WINDOW_UPPER_CASE_LETTERS: String = "viewWindow.upperCaseLetters"
  +{static} VIEW_WINDOW_LOWER_CASE_LETTERS: String = "viewWindow.lowerCaseLetters"
  +{static} VIEW_WINDOW_NUMBERS: String = "viewWindow.numbers"
  +{static} SHOW_MESSAGE_INFORMATION: String = "showMessage.information"
  +{static} SHOW_MESSAGE_CONFIRMATION: String = "showMessage.confirmation"
  +{static} SHOW_MESSAGE_WARNING: String = "showMessage.warning"
  +{static} SHOW_MESSAGE_ERROR: String = "showMessage.error"
  +{static} BUTTON_MESSAGE_YES: String = "buttonMessage.yes"
  +{static} BUTTON_MESSAGE_OK: String = "buttonMessage.ok"
  +{static} BUTTON_MESSAGE_ACCEPT: String = "buttonMessage.accept"
  +{static} BUTTON_MESSAGE_NO: String = "buttonMessage.no"
  +{static} BUTTON_MESSAGE_CANCEL: String = "buttonMessage.cancel"
  +{static} BUTTON_MESSAGE_CLOSE: String = "buttonMessage.close"
  +{static} ENTRY_DIALOG_SHOW_ENTRY: String = "entryDialog.showEntry"
  +{static} ENTRY_DIALOG_GENERATE_ENTRY: String = "entryDialog.generateEntry"
  +{static} ENTRY_DIALOG_COPY_ENTRY: String = "entryDialog.copyEntry"
  +{static} ENTRY_DIALOG_FILL_TITLE_FIELD: String = "entryDialog.fillTitleField"
  +{static} ENTRY_DIALOG_TITLE_ALREADY_EXISTS: String = "entryDialog.titleAlreadyExists"
  +{static} ENTRY_DIALOG_PLEASE_SELECT_ENTRY: String = "entryDialog.pleaseSelectEntry"
  +{static} ENTRY_DIALOG_WANT_DELETE_ENTRY: String = "entryDialog.wantDeleteEntry"
  +{static} ENTRY_DIALOG_DUPLICATE_ENTRY: String = "entryDialog.duplicateEntry"
  +{static} ENTRY_DIALOG_EDIT_ENTRY: String = "entryDialog.editEntry"
  +{static} ENTRY_DIALOG_ADD_NEW_ENTRY: String = "entryDialog.addNewEntry"
  +{static} BOTTOM_MENU_ENTRIES_COUNT: String = "bottomMenu.entriesCount"
  +{static} BOTTOM_MENU_ENTRIES_FOUND: String = "bottomMenu.entriesFound"
  +{static} PANEL_PROCESSING: String = "panel.processing"
  +{static} PANEL_FIND: String = "panel.find"
  +{static} PANEL_EXPORT: String = "panel.export"
  +{static} PANEL_IMPORT: String = "panel.import"
  +{static} PANEL_SAVE: String = "panel.save"
  +{static} PANEL_OPEN: String = "panel.open"
  +{static} PANEL_SAVE_MODIFIED_QUESTION_MESSAGE: String = "panel.saveModifiedQuestionMessage"
  +{static} PANEL_UNENCRYPTED_DATA_WARNING_MESSAGE: String = "panel.unencryptedDataWarningMessage"
  --
  -Constants()
}

class CryptUtils {
  -CryptUtils()
  +{static} getPBKDF2KeyWithDefaultIterations(text: char[], salt: byte[]): byte[]
  +{static} getPBKDF2Key(text: char[], salt: byte[], iteration: int): byte[]
  +{static} getSha256HashWithDefaultIterations(text: char[]): byte[]
  +{static} getSha256Hash(text: char[]): byte[]
  -{static} getSha256Hash(text: char[], iteration: int): byte[]
  +{static} generateRandomSalt(saltLength: int): byte[]
  +{static} newRandomNumberGenerator(): Random
}

class DateUtils {
  -{static} LOG: Logger = Logger.getLogger(DateUtils.class.getName())
  --
  -DateUtils()
  +{static} createFormatter(format: String): DateTimeFormatter
  +{static} formatIsoDateTime(dateString: String, formatter: DateTimeFormatter): String
}

class SpringUtilities {
  -SpringUtilities()
  +{static} makeGrid(parent: Container, rows: int, cols: int, initialX: int, initialY: int, xPad: int, yPad: int): void
  -{static} getConstraintsForCell(row: int, col: int, parent: Container, cols: int): SpringLayout.Constraints
  +{static} makeCompactGrid(parent: Container, rows: int, cols: int, initialX: int, initialY: int, xPad: int, yPad: int): void
}

class StringUtils {
  -StringUtils()
  +{static} stripNonValidXMLCharacters(in: String): String
  +{static} stripString(text: String): String
  +{static} stripString(text: String, length: int): String
}

ClipboardUtils *-- EmptyClipboardContent
Configuration *-- Configuration
@enduml